<?xml version="1.0" encoding="utf-8"?>
<!-- Generator: Adobe Illustrator 17.0.0, SVG Export Plug-In . SVG Version: 6.00 Build 0)  -->
<!DOCTYPE svg PUBLIC "-//W3C//DTD SVG 1.1//EN" "http://www.w3.org/Graphics/SVG/1.1/DTD/svg11.dtd">
<svg version="1.1" xmlns="http://www.w3.org/2000/svg" xmlns:xlink="http://www.w3.org/1999/xlink" x="0px" y="0px" width="1000px"
	 height="1000px" viewBox="0 0 1000 1000" enable-background="new 0 0 1000 1000" xml:space="preserve">
<g id="Calque_1">
	<path fill="#5F7AAF" d="M1014.4-25.208c0,89.738,0,179.475,0,269.213c-82.138,0.041-164.277,0.206-246.414-0.048
		c-9.347-0.029-10.028,2.65-7.073,10.529c4.566,12.176,8.042,24.762,11.98,37.174c-11.116-31.068-23.863-61.742-47.157-85.551
		c-65.583-67.037-145.763-96.216-239.187-86.935c-72.849,7.237-136.047,34.853-184.512,91.626
		c-56.397,66.064-60.65,143.099-47.249,223.936c1.074,6.479,0.351,13.256,0.463,19.894c-2.693-0.668-5.385-1.337-8.078-2.005
		c15.667-4.865,4.042-14.129,3.411-21.545c-4.746-55.824-9.371-111.611,14.273-164.999c2.687-6.067,4.254-12.639,7.043-18.65
		c2.255-4.861,0.302-5.546-3.824-5.534c-93.049,0.28-186.097,0.533-279.146,0.792c-0.068-87.334-0.103-174.669-0.296-262.003
		c-0.01-4.466,0.8-6.055,5.738-6.053C334.382-25.227,674.391-25.223,1014.4-25.208z"/>
	<path fill="#A8C2E6" d="M-11.07,242.687c93.049-0.259,186.097-0.512,279.146-0.792c4.126-0.012,6.079,0.673,3.824,5.534
		c-2.789,6.012-4.356,12.583-7.043,18.65c-23.644,53.388-19.018,109.175-14.273,164.999c0.63,7.417,12.256,16.68-3.412,21.545
		c-6.719,0.051-13.436,0.103-20.154,0.154c-10.678-0.548-19.116,4.939-22.257,13.925c-14.151,40.478-9.641,80.618,6.245,119.527
		c10.846,26.565,24.075,53.387,51.666,65.202c12.834,5.496,16.627,10.697,18.815,23.207c4.899,28.01,13.511,54.985,32.955,77.03
		c0.264,0.345,0.529,0.689,0.793,1.034c12.357,19.955,28.489,36.315,47.532,49.902c0.337,0.277,0.675,0.554,1.012,0.831
		c4.446,3.676,8.891,7.351,13.337,11.027c0.378,0.251,0.755,0.502,1.133,0.753c2.849,2.9,5.676,5.822,8.555,8.692
		c2.439,2.431,10.059,4.524,3.359,8.512c-26.283,15.645-54.633,24.031-85.498,27.212c-31.219,3.218-63.46,5.903-89.006,29.081
		c-30.846,27.986-24.845,66.181-30.057,101.387c-1.148,7.752,2.329,9.131,9.33,9.088c15.852-0.096,31.711,0.762,47.566,1.232
		c-84.576,0-169.151,0-253.727,0c0.009-154.17,0.005-308.341,0.033-462.511C-11.178,439.502-11.113,341.094-11.07,242.687z"/>
	<path fill="#A8C2E6" d="M772.892,291.659c-3.938-12.412-7.414-24.997-11.98-37.174c-2.955-7.88-2.274-10.558,7.073-10.529
		c82.137,0.254,164.276,0.089,246.414,0.048c0,250.352-0.016,500.704,0.126,751.055c0.003,4.586-0.898,5.51-5.487,5.492
		c-53.802-0.205-107.605-0.132-161.408-0.132c-0.047-0.377-0.05-0.755-0.009-1.133c-2.485-19.755-6.185-39.451-7.158-59.281
		c-1.323-26.964-33.8-67.598-56.161-67.934c-0.814-0.405-1.628-0.811-2.443-1.216c-1.043-0.113-2.087-0.225-3.13-0.338
		c-0.469-0.025-0.937-0.05-1.406-0.076c-4.361-0.712-8.721-1.423-13.082-2.135c-0.378-0.133-0.755-0.267-1.133-0.4
		c-1.508-0.605-2.968-1.408-4.531-1.785c-35.81-8.649-76.009-0.228-107.016-27.609c-3.864-3.412-8.073-6.435-12.122-9.638
		c1.949-1.769,3.964-3.471,5.836-5.317c16.021-15.79,38.019-24.949,50.073-45.137c0.917-1.002,1.835-2.003,2.752-3.005
		c0.62-0.739,1.24-1.478,1.86-2.218c7.147-9.265,14.294-18.531,21.441-27.796c13.709-18.05,19.504-39.38,26.124-60.567
		c3.332-10.666-2.558-27.408,13.029-30.817c18.343-4.012,63.934-58.076,62.382-77.558c8.703-32.593,13.661-65.393,5.458-98.919
		c-5.63-28.391-26.797-27.556-48.241-25.066c-5.994,0.696-7.854-0.504-6.2-5.932c13.037-42.789,9.971-86.492,6.426-130.004
		c-0.551-6.766,2.376-16.878-7.101-21.597C773.15,293.849,773.021,292.754,772.892,291.659z"/>
	<path fill="#5F7AAF" d="M242.498,1000.42c-15.856-0.47-31.714-1.328-47.566-1.232c-7.001,0.042-10.477-1.336-9.33-9.088
		c5.212-35.206-0.789-73.401,30.057-101.387c25.546-23.178,57.788-25.863,89.006-29.081c30.865-3.181,59.215-11.567,85.498-27.212
		c6.699-3.988-0.921-6.081-3.359-8.512c-2.879-2.87-5.706-5.792-8.555-8.692c6.064,4.872,12.149,9.719,18.065,14.766
		c0.143,0.122-1.321,2.867-2.515,3.711c-40.151,28.394-88.91,25.114-133.838,35.707c-27.278,6.432-45.827,21.545-59.424,44.964
		c-14.252,24.548-7.737,52.433-13.391,78.33c-0.869,3.979,1.539,5.623,5.161,4.893c4.256-0.858,10.292,3.255,11.547-5.791
		c3.562-25.687-0.396-52.597,13.711-76.62c19.721-33.584,54.907-29.291,85.652-37.682c32.52-8.875,50.808-8.427,43.126,33.872
		c-2.471,13.607-4.201,36.704,8.274,42.968c21.277,10.683,32.844,15.575,5.69,32.147c-1.61,0.982-0.486,6.444-0.634,9.821
		c2.578,0.053,7.397,0.317,7.415,0.128c1.097-11.632,12.034-14.784,18.938-20.501c11.176-9.254,14.484-13.444-2.761-18.724
		c-8.786-2.69-22.916-1.999-25.237-12.762c-4.62-21.423-6.119-43.554-1.478-65.512c3.08-14.571,16.822-16.406,26.916-22.558
		c0.465-0.284,2.825,1.146,3.063,2.09c5.035,20.009,5.745,42.493,15.738,59.55c15.676,26.759-3.072,74.055,46.658,80.586
		c-7.66,0.607-15.319,1.214-22.979,1.821c-5.162,0-10.324,0-15.486,0c-3.971,0-7.941,0-11.912,0c-9.53,0-19.059,0-28.589,0
		c-3.971,0-7.941,0-11.912,0c-2.78,0-5.559,0-8.338,0c-8.338,0-16.677,0-25.015,0c-3.971,0-7.941,0-11.912,0
		c-11.515,0-23.03,0-34.545,0c-1.985,0-3.971,0-5.956,0c-1.185-0.772-2.371-1.544-3.556-2.315
		c4.742-8.689-2.827-14.567-5.147-21.613c-0.145-0.441-4.234-0.309-4.322,0.065c-1.739,7.39-2.293,14.756,2.293,21.507
		c-0.79,0.785-1.58,1.57-2.37,2.355c-1.985,0-3.971,0-5.956,0c-2.382,0-4.765,0-7.147,0
		C244.881,1000.42,243.689,1000.42,242.498,1000.42z"/>
	<path fill="#FAFAFA" d="M-11.07,242.687c-0.044,98.408-0.108,196.815-0.126,295.223c-0.028,154.17-0.024,308.341-0.033,462.511
		c-0.397-1.787-1.142-3.574-1.142-5.36c-0.051-338.7-0.049-677.399-0.057-1016.099c0-2.916-1.114-5.519,4.177-5.516
		c339.494,0.172,678.987,0.154,1018.481,0.205c1.39,0,2.779,0.745,4.169,1.142C674.391-25.223,334.382-25.227-5.627-25.369
		c-4.938-0.002-5.748,1.587-5.738,6.053C-11.173,68.018-11.137,155.352-11.07,242.687z"/>
	<path fill="#FAFAFA" d="M847.622,999.287c-0.041,0.378-0.038,0.756,0.009,1.133c-132.621,0-265.242,0-397.863,0
		c0.028-0.415,0.056-0.831,0.084-1.246c0.677-0.047,1.355-0.094,2.032-0.14c2.046,0.059,4.091,0.118,6.138,0.177
		c0.849-0.04,1.697-0.08,2.545-0.121c6.323-0.045,12.646-0.09,18.969-0.135c0.767,0.028,1.535,0.056,2.302,0.084
		c2.504,0.002,5.009,0.004,7.513,0.006c20.099,0.007,40.198,0.014,60.297,0.021c2.917,0.039,5.835,0.077,8.752,0.116
		c1.93-0.021,3.86-0.041,5.79-0.062c4.731-0.021,9.461-0.042,14.192-0.063c0.751,0.033,1.503,0.066,2.254,0.099
		c2.459,0.002,4.919,0.004,7.379,0.006c6.734-0.006,13.468-0.011,20.202-0.017c18.619,0.007,37.238,0.015,55.857,0.022
		c2.452,0.004,4.904,0.009,7.355,0.013c29.347-0.016,58.695-0.033,88.042-0.05c4.318-0.016,8.636-0.031,12.953-0.047
		c18.368-0.028,36.737-0.056,55.105-0.084c5.563,0.06,11.127,0.119,16.69,0.179C845.353,999.215,846.488,999.251,847.622,999.287z"
		/>
	<path fill="#A8C2E6" d="M278.234,1000.42c11.515,0,23.03,0,34.545,0C301.264,1000.42,289.749,1000.42,278.234,1000.42z"/>
	<path fill="#A8C2E6" d="M324.691,1000.42c8.338,0,16.677,0,25.015,0C341.368,1000.42,333.03,1000.42,324.691,1000.42z"/>
	<path fill="#A8C2E6" d="M449.852,999.174c-0.028,0.416-0.056,0.831-0.084,1.246c-7.941,0-15.883,0-23.824,0
		c7.66-0.607,15.319-1.214,22.98-1.821C449.351,998.603,449.659,998.794,449.852,999.174z"/>
	<path fill="#A8C2E6" d="M259.175,1000.42c0.79-0.785,1.58-1.57,2.37-2.355c2.392,0.013,4.785,0.027,7.177,0.04
		c1.185,0.772,2.371,1.544,3.556,2.315C267.911,1000.42,263.543,1000.42,259.175,1000.42z"/>
	<path fill="#A8C2E6" d="M398.546,1000.42c3.971,0,7.941,0,11.912,0C406.487,1000.42,402.517,1000.42,398.546,1000.42z"/>
	<path fill="#A8C2E6" d="M358.045,1000.42c3.971,0,7.941,0,11.912,0C365.986,1000.42,362.016,1000.42,358.045,1000.42z"/>
	<path fill="#A8C2E6" d="M246.072,1000.42c2.382,0,4.765,0,7.147,0C250.837,1000.42,248.454,1000.42,246.072,1000.42z"/>
	<path fill="#5F7AAF" d="M227.018,452.777c-41.399,23.055-28.452,61.327-24.972,95.462c3.615,35.452,18.769,72.291,47.855,88.381
		c42.195,23.341,32.505,68.581,55.603,98.256c3.838,4.93,6.001,11.164,8.938,16.794c-19.444-22.045-28.057-49.02-32.956-77.03
		c-2.188-12.51-5.981-17.711-18.815-23.207c-27.591-11.815-40.821-38.638-51.666-65.202c-15.886-38.909-20.396-79.049-6.245-119.527
		C207.902,457.716,216.34,452.229,227.018,452.777z"/>
	<path fill="#5F7AAF" d="M315.235,752.703c15.844,16.635,31.689,33.269,47.533,49.903
		C343.724,789.018,327.592,772.658,315.235,752.703z"/>
	<path fill="#5F7AAF" d="M363.779,803.436c4.446,3.676,8.892,7.352,13.338,11.027C372.671,810.787,368.225,807.111,363.779,803.436z
		"/>
	<path fill="#5F7AAF" d="M721.403,745.404c13.127-27.611,23.985-55.923,29.448-86.233c2.367-13.132,17.638-6.31,25.039-14.37
		c18.99-20.679,34.807-43.188,47.047-68.34c1.552,19.483-44.039,73.547-62.382,77.559c-15.586,3.409-9.696,20.151-13.029,30.817
		C740.907,706.024,735.111,727.354,721.403,745.404z"/>
	<path fill="#5F7AAF" d="M763.109,867.907c-28.233-3.365-57.043-4.355-84.475-11.019c-15.509-3.768-29.725-15.697-42.495-26.376
		c-4.556-3.81,5.645-7.582,9.351-10.767c16.37-14.066,33.199-27.599,49.86-41.324c-12.055,20.188-34.053,29.347-50.074,45.138
		c-1.873,1.846-3.888,3.548-5.836,5.317c4.049,3.203,8.258,6.225,12.122,9.638c31.008,27.381,71.207,18.96,107.016,27.609
		C760.142,866.5,761.602,867.303,763.109,867.907z"/>
	<path fill="#5F7AAF" d="M828.395,477.543c-10.438-22.234-27.374-29.283-50.896-22.607c-8.414,2.388-5.658-5.355-4.953-8.284
		c12.179-50.548,12.321-101.082,0.733-151.709c9.477,4.719,6.55,14.831,7.101,21.597c3.545,43.512,6.611,87.215-6.426,130.004
		c-1.654,5.428,0.206,6.628,6.2,5.932C801.598,449.988,822.765,449.152,828.395,477.543z"/>
	<path fill="#5F7AAF" d="M844.219,999.179c-5.428-31.155-0.307-64.33-18.729-93.017c-10.213-15.903-25.483-25.124-41.188-34.09
		c22.362,0.337,54.839,40.97,56.162,67.935c0.973,19.829,4.673,39.525,7.158,59.281
		C846.488,999.251,845.353,999.215,844.219,999.179z"/>
	<path fill="#5F7AAF" d="M777.324,870.443c-4.361-0.712-8.723-1.424-13.083-2.135C768.603,869.019,772.964,869.731,777.324,870.443z
		"/>
	<path fill="#5F7AAF" d="M781.86,870.856c-1.044-0.113-2.088-0.225-3.131-0.338C779.773,870.631,780.817,870.743,781.86,870.856z"/>
	<path fill="#5F7AAF" d="M698.102,775.418c0.621-0.74,1.241-1.48,1.861-2.219C699.342,773.94,698.722,774.679,698.102,775.418z"/>
	<path fill="#121314" d="M268.722,998.105c-2.392-0.013-4.784-0.027-7.177-0.04c-4.585-6.751-4.032-14.117-2.293-21.507
		c0.088-0.375,4.177-0.506,4.322-0.065C265.895,983.538,273.463,989.416,268.722,998.105z"/>
	<path fill="#5F7AAF" d="M671.428,999.18c10.621-15.74-5.02-20.367-12.326-28.045c-5.96-6.264-8.523-8.971,2.598-12.42
		c40.744-12.634,20.941-46.107,22.753-71.542c0.598-8.393-1.813-14.039,9.689-12.203c29.222,4.665,59.783,5.163,87.437,14.416
		c39.632,13.261,42.123,50.684,44.542,85.894c0.543,7.901,0.942,15.812,1.407,23.719c-18.369,0.028-36.737,0.056-55.105,0.084
		c0.403-2.53,1.219-5.076,1.124-7.588c-0.21-5.581-0.876-11.145-1.356-16.716c-1.49,1.041-3.724,1.757-4.343,3.177
		c-3.03,6.955-5.629,14.097-8.38,21.173C730.123,999.147,700.776,999.163,671.428,999.18z"/>
	<path fill="#5F7AAF" d="M608.216,999.145c14.296-46.188,35.505-90.497,36.864-140.225c0.186-6.798,4.682,0.301,6,1.126
		c23.997,15.027,37.115,58.609,22.402,83.091c-4.345,7.229-19.026,8.166-28.872,12.226c-2.515,1.037-6.149,2.677-6.549,4.604
		c-0.408,1.969,2.375,4.744,4.027,6.97c7.755,10.455,26.827,13.171,21.987,32.23C645.454,999.159,626.835,999.152,608.216,999.145z"
		/>
	<path fill="#C1C3C1" d="M549.648,999.066c12.824-14.122,25.645-26.884,38.367,0.096c-2.46-0.002-4.919-0.004-7.378-0.006
		c-2.098-3.435-3.711-9.301-6.389-9.837c-7.351-1.471-12.081,4.032-15.847,9.863C555.482,999.143,552.565,999.104,549.648,999.066z"
		/>
	<path fill="#C1C3C1" d="M451.883,999.033c3.969-6.918,7.579-16.195,16.234-15.942c9.39,0.274,15.749,8.415,21.233,15.954
		c-2.504-0.002-5.009-0.004-7.514-0.006c-0.663-0.469-1.326-0.939-1.988-1.408c-0.293-0.291-0.585-0.581-0.878-0.872
		c-0.507-0.598-1.014-1.195-1.521-1.793c-2.506-1.733-5.013-3.465-7.519-5.198c-9.781-4.183-10.075,3.601-11.911,9.442
		C455.975,999.151,453.929,999.092,451.883,999.033z"/>
	<path fill="#121314" d="M759.47,999.13c2.751-7.076,5.35-14.218,8.38-21.173c0.619-1.42,2.853-2.137,4.343-3.177
		c0.48,5.571,1.146,11.135,1.356,16.716c0.095,2.511-0.721,5.057-1.124,7.588C768.106,999.099,763.788,999.115,759.47,999.13z"/>
	<path fill="#C31315" d="M469.931,989.768c2.506,1.733,5.013,3.465,7.518,5.199c0.507,0.598,1.014,1.195,1.522,1.792
		c0.293,0.291,0.585,0.581,0.876,0.872c-0.105,0.441-0.208,0.882-0.311,1.323c-6.323,0.045-12.646,0.09-18.97,0.135
		C463.687,995.983,466.809,992.875,469.931,989.768z"/>
	<path fill="#A22525" d="M558.399,999.181c3.766-5.831,8.496-11.335,15.847-9.863c2.679,0.536,4.291,6.403,6.389,9.837
		c-0.752-0.033-1.503-0.066-2.255-0.099c-4.773-9.659-9.489-6.387-14.192,0.063C562.26,999.14,560.33,999.161,558.399,999.181z"/>
	<path fill="#C31315" d="M564.19,999.12c4.702-6.449,9.418-9.722,14.192-0.063C573.651,999.078,568.92,999.099,564.19,999.12z"/>
	<path fill="#A22525" d="M469.931,989.768c-3.122,3.107-6.244,6.214-9.365,9.321c-0.848,0.04-1.695,0.08-2.544,0.12
		C459.856,993.37,460.15,985.586,469.931,989.768z"/>
	<path fill="#A22525" d="M479.535,998.954c0.103-0.441,0.206-0.881,0.311-1.323c0.664,0.469,1.326,0.938,1.99,1.407
		C481.07,999.011,480.303,998.983,479.535,998.954z"/>
	<path fill="#FDCA9A" d="M652.316,182.551c0.561,0.117,1.122,0.233,1.682,0.35c4.869,2.704,9.738,5.408,14.606,8.112
		c0.191,0.291,0.46,0.427,0.808,0.409c3.02,2.11,6.04,4.221,9.059,6.332c1.027,0.918,2.055,1.836,3.082,2.754
		c0.803,0.791,1.605,1.581,2.408,2.372c0,0,0.078,0.078,0.078,0.078c0.801,0.795,1.602,1.589,2.403,2.384
		c0.379,0.353,0.758,0.707,1.137,1.06c0.786,0.854,1.572,1.708,2.358,2.562c2.833,2.689,5.666,5.379,8.498,8.068
		c2.193,4.336,7.78,8.37,9.973,12.706c3.42,3.947,24.718,30.376,24.718,30.376s8.482,19.782,13.716,23.142
		c11.479,7.371,6.456,21.262,14.066,29.592c0.016,0.542,0.033,1.085,0.049,1.627c5.076,20.833,11.429,45.055,3.515,79.893
		c-0.115,4.731-0.23,9.461-0.345,14.192c-0.892,4.779-1.784,9.559-2.676,14.338c-0.272,2.773-0.544,5.545-0.816,8.318
		c-0.694,2.809-1.388,5.618-2.082,8.427c-0.103,2.348-0.207,4.697-0.31,7.045c-0.955,6.765-1.91,13.53-2.865,20.294
		c-0.189,3.291-0.379,6.583-0.567,9.874c-5.435,22.788-1.914,45.816-1.844,68.752c-0.056,2.349-0.111,4.697-0.167,7.046
		c-0.112,0.833-0.224,1.665-0.336,2.498c-0.104,4.73-0.208,9.459-0.311,14.189c-0.897,5.984-1.794,11.967-2.691,17.951
		c-0.227,1.7-0.455,3.4-0.681,5.101c-0.755,2.675-1.511,5.35-2.268,8.025c-0.087,1.163-0.174,2.325-0.262,3.488
		c-0.888,3.196-1.776,6.391-2.663,9.587c-0.13,1.349-0.259,2.698-0.389,4.047c-1.99,7.369-3.981,14.738-5.971,22.106
		c-0.122,0.526-0.245,1.052-0.366,1.578c-0.707,2.297-1.414,4.593-2.121,6.89c-0.148,0.748-0.296,1.496-0.443,2.244
		c-0.945,2.456-1.889,4.912-2.834,7.367c-0.167,0.732-0.333,1.464-0.5,2.197c-1.659,3.945-3.319,7.889-4.978,11.833
		c-0.236,0.964-0.472,1.929-0.707,2.893c-2.714,6.016-5.429,12.031-8.143,18.047c-0.279,0.269-0.394,0.596-0.344,0.981
		c-5.238,9.785-10.476,19.57-15.715,29.354c-0.282,0.149-0.406,0.382-0.375,0.699c-2.481,3.523-4.961,7.046-7.442,10.568
		c-13.794,18.24-29.278,34.799-48.028,48.077c-1.669,1.182-3.7,1.853-5.563,2.762c0.231-1.983,0.247-4.02,0.726-5.941
		c7.279-29.215,18.567-58.385,0.92-87.827c-1.174-1.958-3.131-3.446-4.724-5.152c-13.417-16.82-30.764-12.774-48.05-9.049
		c-3.289,0.195-6.577,0.389-9.866,0.584c-8.932-0.395-18.044-2.319-26.299,3.076c-0.764,0.088-1.529,0.177-2.293,0.265
		c-5.048,0.671-10.095,1.343-15.143,2.015c-13.119,0.034-26.238,0.068-39.357,0.102c-5.819-0.721-11.638-1.443-17.457-2.165
		c-0.752-0.119-1.504-0.238-2.257-0.357c-3.148-0.191-6.295-0.383-9.443-0.574c-1.042-0.101-2.084-0.202-3.126-0.303
		c-4.119-0.694-8.238-1.388-12.358-2.081c-2.59-0.153-5.181-0.306-7.771-0.459c-11.868-3.383-23.732-5.574-35.572,0.109
		c-0.635,0.154-1.269,0.308-1.904,0.462c-2.351,1.193-4.702,2.385-7.053,3.577c0,0-0.039,0.037-0.039,0.037
		c-11.247,5.633-17.031,14.857-17.935,27.288c-0.082,0.696-0.164,1.393-0.246,2.089c-5.323,12.089-2.754,24.029,0.681,35.953
		c0.152,1.141,0.304,2.283,0.456,3.424c0.702,3.045,1.405,6.09,2.107,9.135c0.21,1.006,0.419,2.012,0.629,3.017
		c1.811,6.12,3.623,12.239,5.434,18.359c0.125,0.626,0.25,1.252,0.374,1.878c-0.43,0.72-0.86,1.441-1.291,2.162
		c-0.54-0.091-1.079-0.182-1.618-0.272c-12.081-10.785-24.161-21.57-36.242-32.355c-0.031-0.295-0.192-0.475-0.482-0.538
		c-0.882-0.959-1.764-1.92-2.645-2.88c-1.21-1.513-2.419-3.026-3.629-4.538c-1.01-1.283-2.02-2.565-3.029-3.848
		c0,0-0.262-0.405-0.262-0.405c-0.784-1.104-1.568-2.208-2.352-3.313c0.044-0.323-0.066-0.579-0.33-0.77
		c-0.987-1.28-1.973-2.56-2.96-3.84c0.057-0.249-0.033-0.419-0.271-0.512c-0.715-1.022-1.43-2.044-2.145-3.066
		c0,0-0.232-0.472-0.233-0.472c-0.884-1.268-1.767-2.536-2.65-3.804c-25.162-43.376-40.389-90.246-49.041-139.429
		c-0.66-4.733-1.321-9.466-1.982-14.198c-0.204-5.161-0.409-10.321-0.613-15.482c-0.562-18.257-1.124-36.513-1.686-54.77
		c-1.426-15.887-5.936-30.023-7.362-45.911c-0.579-2.793-1.462-6.504-2.041-9.297c-0.449-4.478-1.512-8.192-1.96-12.671
		c-0.346-1.866-1.441-8.031-1.787-9.897c-0.238-0.781,2.024-4.282,1.787-5.063c-0.193-0.809-1.296-4.105-1.489-4.914
		c-0.209-5.144-1.727-3.045-1.936-8.19c-0.714-5.958,3.041-11.25,2.327-17.209c-0.02-4.367-4.59-33.721-4.61-38.087
		c2.719-25.003,9.988-25.018,12.707-50.021c0.52-1.581,1.039-3.162,1.558-4.743c0.67-1.996,1.34-3.992,2.01-5.988
		c0.337-1.169,0.673-2.338,1.009-3.507c0.492-1.594,0.985-3.189,1.477-4.783c1.285-3.052,2.569-6.104,3.854-9.155
		c7.562-9.379,10.932-19.265,14.51-26.651c2.974-8.298,9.82-9.602,13.5-15.287c1.11-2.99,7.904-7.177,10.125-9.927
		c2.723-4.63,6.314-5.013,12.905-11.118c13.706-18.124,34.152-17.553,53.445-27.724c0.745-0.181,3.361-1.056,3.361-1.056
		s34.274-10.507,37.895-11.495C515.052,145.427,540.101,154.668,652.316,182.551z M455.801,482.335l0.008,0.008
		c-2.827-2.318-5.654-4.635-8.481-6.953c-1.319-0.781-2.638-1.562-3.958-2.343c-3.841-1.795-7.682-3.589-11.523-5.384
		c-0.927-0.172-1.853-0.343-2.78-0.515c-2.655-0.804-5.311-1.608-7.966-2.413c-1.164-0.083-2.328-0.167-3.492-0.25
		c-3.199-0.173-6.398-0.347-9.597-0.52c-2.949-0.022-5.899-0.045-8.848-0.067c-8.022,1.007-16.044,2.013-24.066,3.02
		c-1.398,0.276-2.796,0.552-4.194,0.828c-1,0.504-1.999,1.007-2.999,1.51c-13.358,3.484-22.749,12.505-31.426,22.521
		c-1.376,2.449-2.752,4.899-4.127,7.348c-0.158,0.509-0.316,1.019-0.475,1.528c-0.568,0.962-1.137,1.923-1.705,2.885
		c-0.283,1.286-0.566,2.572-0.849,3.857c-5.368,6.338-2.884,11.017,3.156,14.945c1.183,1.177,2.366,2.354,3.549,3.531
		c1.702,1.51,3.404,3.02,5.106,4.53c1.91,1.2,3.819,2.399,5.729,3.599c0.929,0.712,1.858,1.424,2.787,2.136
		c2.963,1.403,5.926,2.807,8.89,4.21c1.049,0.484,2.097,0.967,3.146,1.451c1.711,0.407,3.421,0.815,5.132,1.222
		c1.026,0.482,2.053,0.965,3.079,1.447c2.791,0.414,5.583,0.827,8.374,1.241c1.212,0.247,2.424,0.495,3.635,0.742
		c0.512,0.093,1.024,0.186,1.535,0.279c1.467,0.394,2.935,0.788,4.402,1.181c6.362,0.043,12.724,0.085,19.086,0.128
		c4.356-0.788,8.713-1.575,13.069-2.363c4.739-1.291,9.478-2.583,14.217-3.874c5.048-2.805,10.097-5.609,15.145-8.414
		c3.015-2.162,6.029-4.324,9.044-6.486c0.829-0.764,1.658-1.529,2.487-2.293l0.096-0.08c11.12-5.618,15.11-13.214,6.727-24.244
		c-0.288-0.898-0.576-1.796-0.864-2.694c-2.744-4.063-5.489-8.126-8.233-12.189c-0.014-0.308-0.164-0.519-0.451-0.633
		C457.379,483.957,456.59,483.146,455.801,482.335z M329.425,443.741c-0.276,0.027-3.026-0.276-3.055,0
		c-1.891,3.382-2.567,4.506-4.457,7.888c7.347,3.151,8.592-1.912,14.333-4.974c0.704-0.169,1.407-0.337,2.111-0.506
		c4.874-1.756,9.747-3.513,14.621-5.269c0.913-0.072,1.827-0.144,2.74-0.216c2.38-0.125,3.871-6.126,6.252-6.251
		c6.448,0.217,12.857,1.208,19.305,1.425c5.474,0.676,11.877,6.455,17.351,7.131c1.933,0.189,3.866,0.378,5.798,0.567
		c3.532,0.767,7.065,1.533,10.597,2.3c2.166,0.323,4.332,0.646,6.498,0.969c2.664,0.754,5.328,1.509,7.992,2.263
		c1.576,0.166,3.152,0.333,4.729,0.499c2.672,0.793,5.345,1.586,8.017,2.38c2.604,0.307,5.208,0.615,7.812,0.922
		c5.397,0.828,10.78,1.926,16.207,2.223c0.916,0.05-0.548-4.66-1.021-5.231c-3.075-3.711-6.453-2.711-10.566-4.895
		c-6.466-3.435-0.449-2.603-7.36-5.2c-1.673-0.349-12.278-0.687-13.951-1.036c-5.213-1.8-8.375-2.517-13.587-4.317
		c-1.139-0.199-4.023-1.427-5.162-1.626c-8.748-1.901-16.466-4.254-25.214-6.155c-0.774-0.143-5.182-0.255-5.956-0.397
		c-21.178-7.027-36.167-6.859-51.192,7.749c-0.307,0.013-0.531,0.156-0.673,0.428c-1.389,0.95,2.276,5.301,0.887,6.251
		c-0.44,0.489-1.868-0.352-2.308,0.138C336.419,444.388,330.125,443.051,329.425,443.741z M697.713,523.095
		c14.384-14.081,0.405-23.263-5.836-33.781l-0.025-0.035c-11.43-15.143-26.772-23.096-45.528-24.776
		c-2.219-0.141-4.437-0.281-6.656-0.422c-6.298-0.004-12.597-0.009-18.895-0.013c-1.798,0.108-3.597,0.216-5.395,0.324
		c-20.987,0.784-37.828,8.813-48.446,27.719c-0.254,0.608-0.507,1.215-0.761,1.823c-2.751,6.461-9.476,14.735-7.509,19.043
		c5.977,13.094,18.714,20.296,31.914,25.826c1.018,0.337,2.036,0.675,3.055,1.012c1.694,0.813,3.388,1.626,5.082,2.44
		c0.558,0.141,1.115,0.282,1.673,0.424c1.828,0.735,3.655,1.47,5.483,2.204c0.558,0.075,1.115,0.15,1.673,0.225
		c16.325,6.07,32.654,4.868,48.984,0.024c0.552-0.089,1.104-0.179,1.657-0.268c2.586-0.776,5.172-1.553,7.758-2.329
		c0.606-0.112,1.211-0.225,1.817-0.337c12.72-2.086,22.01-9.548,29.962-19.109L697.713,523.095z M565.697,647.126
		c0,0-0.056,0.065-0.056,0.065c-8.659-1.081-20.039-6.162-25.455-2.477c-14.824,10.088-28.316,15.093-44.613,5.157
		c-0.287-0.038-0.515-0.174-0.686-0.408c-2.669-8.958-10.4-7.461-15.591-5.421c-19.566,7.69-17.126-4.85-16.077-16.453
		c0.137-1.514,1.553-2.96,1.537-4.428c-0.022-2.097,1.955-7.496-2.741-4.855c-3.334,1.875-4.417,7.75-6.506,11.84
		c-0.13,0.699-0.261,1.399-0.391,2.099c-4.207,3.328-4.239,6.686-0.075,10.076c0.178,1.085,0.357,2.17,0.535,3.255
		c0.189,11.467,8.861,11.744,16.86,12.547c15.618,1.568,27.434,15.581,44.165,13.363c0.949-0.077,1.899-0.155,2.849-0.232
		c1.8-1.035,3.6-2.071,5.401-3.106c0.278-0.219,0.594-0.334,0.947-0.346c8.776-2.648,17.642-5.034,26.303-8.016
		c9.444-3.253,23.657-0.415,23.139-17.182c0.047-3.163,0.095-6.325,0.142-9.488c-2.054-5.047-4.068-10.11-6.258-15.097
		c-0.129-0.294-2.362-0.167-2.437,0.098c-0.57,2.019-1.146,4.119-1.163,6.197C565.467,631.918,565.623,639.522,565.697,647.126z
		 M581.726,446.686c2.172-0.394,4.308,5.557,6.48,5.163c2.719-0.7,5.438-1.4,8.156-2.101c1.933-0.276,3.866-0.552,5.799-0.828
		c2.308-0.678,4.615-1.356,6.923-2.034c0.519-0.105,1.039-0.209,1.558-0.314c1.379-0.569,2.758-1.138,4.137-1.707
		c0.24,0.3,0.479,0.6,0.719,0.901c3.549-0.658,7.098-1.316,10.647-1.974c3.121-0.288-1.251-8.078,1.87-8.366
		c3.507-0.624,1.746-1.888,5.253-2.511c10.135,0.015,7.53-1.591,17.665-1.575c1.049,0.334,27.6,10.432,28.65,10.765
		c2.537,0.656,5.075,1.313,7.612,1.969c1.419,0.554,2.838,1.107,4.258,1.661c5.996,2.117,11.991,4.235,17.987,6.352
		c6.713-1.788-4.107-1.182-6.987-3.915c0.037-0.328-0.76-3.928-1.042-4.099c-2.044-1.983-0.284-2.452-2.327-4.435
		c-1.524-1.209,1.524-3.94,0-5.149c-1.323-1.05-2.646-2.1-3.969-3.15c-1.039-0.899-5.956,3.829-7.123,3.15
		c-45.743-26.589-60.096-2.298-100.937,12.195c-0.84,0.816-1.245-0.628-2.084,0.189c16.811,1.983-10.473,3.89-10.529,4.278
		c-3.519,5.545-8.107-2.451-2.276-2.085c1.646-0.111,0.631,0.111,2.276,0C577.515,448.418,578.652,447.335,581.726,446.686z
		 M538.563,517.007c3.341,20.519,6.29,39.355,9.633,58.122c0.36,2.023,3.013,3.638,4.602,5.442c0.5-2.316,1.596-4.682,1.406-6.94
		c-1.628-19.303-3.564-38.579-5.248-57.877c-0.748-8.572-1.129-17.175-1.677-25.764
		C544.286,499.269,541.292,508.548,538.563,517.007z M436.308,458.46c-7.906,2.443-6.662,2.059-5.418,1.674
		c-1.085-1.251-1.952-2.84-3.288-3.702c-12.761-8.235-27.135-3.086-40.724-4.406c-3.631-0.353-7.651,3.304-11.493,5.119
		c4.566,0.438,9.128,1.191,13.699,1.254C401.747,458.574,414.414,458.46,436.308,458.46z M624.679,452.086
		c-5.911,0.621-11.155,0.553-16.01,1.895c-3.324,0.919-6.106,3.802-9.13,5.807c1.791,0.391,3.617,1.233,5.368,1.101
		c13.927-1.053,27.842-2.277,41.756-3.501c1.079-0.095,2.124-0.581,3.185-0.886c-0.699-0.462-1.353-1.233-2.102-1.339
		C639.837,454.047,631.913,453.036,624.679,452.086z"/>
	<path fill="#FDCA9A" d="M442.017,815.149c-0.243-0.288-0.552-0.43-0.928-0.428c-5.946-5.08-11.892-10.16-17.838-15.24
		c-0.918-1.053-1.836-2.107-2.754-3.16c-1.343-1.678-2.686-3.357-4.029-5.036c0.003-0.291-0.134-0.482-0.41-0.572
		c-0.799-1.017-1.597-2.036-2.395-3.054c0.01-0.344-0.126-0.614-0.409-0.81c-0.913-1.349-1.827-2.699-2.741-4.048
		c-0.167-0.371-0.334-0.742-0.501-1.112c-1.582-2.959-3.163-5.918-4.744-8.878c-0.38-0.995-0.76-1.991-1.141-2.986
		c-0.615-1.252-1.229-2.505-1.844-3.758c-0.38-1.345-0.759-2.69-1.139-4.035c-0.758-1.954-1.515-3.909-2.273-5.864
		c-0.122-1.164-0.245-2.327-0.367-3.491c-0.726-3.464-1.451-6.928-2.177-10.392c-0.01-7.382-0.02-14.763-0.032-22.145
		c0.338-1.073,0.679-2.146,1.019-3.219c3.802-11.716,11.118-19.208,24.022-19.982c3.904-0.056,7.808-0.111,11.712-0.167
		c8.736,1.01,17.472,2.019,26.208,3.028c0.814,0.12,1.629,0.24,2.443,0.36c41.38,7.008,82.4,2.258,123.766-1.736
		c43.18-4.169,59.276,21.047,42.51,62.128c-23.799,58.315-64.602,78.732-142.404,71.26c-1.074-0.368-2.148-0.736-3.222-1.104
		c-3.436-0.542-6.872-1.083-10.309-1.624c-1.014-0.557-2.027-1.115-3.04-1.673c-1.735-0.376-3.47-0.752-5.205-1.126
		c-3.732-1.707-7.464-3.416-11.195-5.125c-0.65-0.232-1.301-0.464-1.952-0.695C447.771,818.695,444.894,816.922,442.017,815.149z
		 M579.56,714.78c-54.921,8.021-109.529,12.729-162.15-11.937c-5.557-2.605-10.239,2.406-12.215,7.748
		c-1.67,4.516,1.471,7.29,5.648,7.979c56.096,9.245,112.174,19.459,169.084,6.046c1.77-0.449,3.54-0.898,5.31-1.348
		c3.095-0.527,8.29-0.165,8.95-1.724c4.856-11.465,32.414,11.908,25.374-16.641c-0.133-0.379-0.4-0.576-0.8-0.591
		c-0.465-0.215-0.93-0.43-1.395-0.645c-3.658-4.33-6.85-3.784-9.645,0.921c-7.396,2.884-14.793,5.768-22.189,8.653
		C583.541,713.753,581.55,714.266,579.56,714.78z M517.465,765.842c8.894-2.201,19.564-4.647,30.082-7.633
		c1.776-0.504,2.893-3.332,4.315-5.086c-1.992-0.956-3.992-2.754-5.976-2.737c-19.39,0.164-38.779,0.548-58.163,1.081
		c-3.849,0.106-7.672,1.113-11.508,1.705c3.891,2.592,7.462,6.395,11.74,7.524C496.812,763.035,506.044,763.952,517.465,765.842z"/>
	<path fill="#FDCA9A" d="M580.781,857.371c0.231,1.565,0.461,3.131,0.692,4.696c0.592,12.211,9.593,5.321,14.996,6.602
		c2.508,0.094,5.017,0.187,7.524,0.28c8.295,17.733-6.714,27.292-13.892,39.598c-2.076,1.835-4.152,3.671-6.229,5.506
		c-1.685,1.03-3.37,2.059-5.055,3.089c-2.219,1.027-4.439,2.055-6.658,3.082c-0.955,0.563-1.91,1.127-2.865,1.69
		c-0.967,0.298-1.933,0.595-2.9,0.893c-1.807,0.854-3.615,1.708-5.422,2.562c-0.922,0.175-1.845,0.35-2.767,0.525
		c-1.625,0.423-3.25,0.846-4.875,1.268c-3.141,0.624-6.281,1.247-9.422,1.871c-3.597,0.635-7.194,1.27-10.791,1.906
		c-12.415,0.031-24.83,0.061-37.245,0.094c-3.469-0.681-6.938-1.363-10.407-2.045c-2.756-0.497-5.512-0.994-8.268-1.49
		c-0.767-0.375-1.534-0.751-2.301-1.126c-1.752-0.348-3.504-0.696-5.256-1.043c-1.873-0.766-3.745-1.533-5.618-2.3
		c-0.743-0.217-1.487-0.435-2.23-0.652c-1.174-0.682-2.347-1.364-3.52-2.046c-0.962-0.336-1.925-0.672-2.887-1.008
		c-2.894-1.764-5.788-3.528-8.682-5.292c-5.166-5.068-10.332-10.135-15.498-15.203c-1.826-3.047-3.652-6.094-5.478-9.141
		c-0.44-1.564-0.881-3.128-1.321-4.692c-0.462-1.577-0.924-3.153-1.386-4.73c-0.035-2.644-0.069-5.287-0.104-7.931
		c1.223-1.146,2.445-2.293,3.668-3.44c3.287-0.156,6.575-0.311,9.862-0.466c4.636-0.119,10.413,3.405,12.77-3.997
		c0.908-3.1-1.319-8.527,5.418-7.301c8.997,2.501,17.862,6.353,27.018,7.254c28.428,2.797,57.036,5.727,84.853-4.439
		c1.544-0.166,3.088-0.332,4.633-0.498c1.826-0.818,3.653-1.637,5.48-2.455c0.596-0.064,1.193-0.127,1.789-0.191
		C579.197,856.99,579.989,857.18,580.781,857.371z"/>
	<path fill="#FDCA9A" d="M809.312,569.106c-0.159,0.804-0.317,1.608-0.476,2.412c-0.738,1.481-1.475,2.963-2.213,4.444
		c-0.228,1.052-0.456,2.103-0.683,3.155c-1.888,3.871-3.776,7.742-5.664,11.614c-2.55,3.853-5.1,7.706-7.65,11.559
		c-2.409,3.2-4.819,6.399-7.228,9.599c-0.266,0.176-0.381,0.422-0.346,0.739c-1.482,2.121-2.965,4.243-4.447,6.364
		c-0.508,0.652-1.016,1.304-1.523,1.956c-0.744,0.888-1.488,1.776-2.232,2.664c-0.264,0.483-0.529,0.966-0.793,1.449
		c-1.877,1.656-3.58,3.588-5.668,4.91c-4.034,2.554-8.285,4.764-12.446,7.116c0.23-3.656,0.976-7.365,0.602-10.958
		c-1.971-18.96,22.223-18.808,24.836-34.309l-0.1,0.085c0.454-0.488,0.908-0.975,1.362-1.463
		c13.497-32.669,33.391-64.535,12.736-101.49c1.767-2.667,3.534-5.333,5.301-8c-3.61,0.874-8.179,0.661-10.643,2.834
		c-6.185,5.454-11.409,11.997-17.043,18.08c-1.001,1.081-2.119,2.053-3.183,3.076c-0.335-1.473-0.814-2.93-0.983-4.422
		c-1.553-13.701,0.214-26.43,14.845-32.055c14.144-5.437,22.479,3.423,29.189,14.391c0.153,1.012,0.306,2.024,0.46,3.037
		c0.767,2.627,1.534,5.254,2.301,7.881c-0.095,12.95-0.19,25.901-0.283,38.852c-0.608,3.069-1.218,6.137-1.828,9.205
		c-0.167,1.177-0.333,2.354-0.5,3.531c-0.776,3.096-1.551,6.192-2.327,9.288c-0.458,2.584-0.916,5.169-1.372,7.754
		C810.647,564.639,809.98,566.873,809.312,569.106z"/>
	<path fill="#FDCA9A" d="M215.84,547.207c-0.07-0.616-0.139-1.232-0.209-1.848c-0.825-15.133-2.866-30.328-2.106-45.382
		c0.657-13.015,2.6-28.203,18.236-31.986c16.877-4.083,25.221,6.884,28.906,22.095c0.01,5.078,0.02,10.156,0.031,15.235
		c-6.967-6.906-13.627-14.17-21.056-20.537c-2.909-2.493-7.545-2.972-11.394-4.368c1.483,2.917,2.965,5.834,4.448,8.751
		c-13.88,20.9-9.549,43.075-3.106,64.63c3.835,12.829,10.936,24.682,16.569,36.973c3.26,14.782,21.583,16.159,26.344,29.605
		c0.152,1.54,0.303,3.08,0.455,4.62c0.726,4.082,1.453,8.164,2.179,12.245c0,0-0.341,0.303-0.34,0.303
		c-5.634-3.218-12.686-5.22-16.666-9.858C237.954,604.176,222.098,578.146,215.84,547.207z"/>
	<path fill="#D88F6E" d="M246.158,590.771c-5.633-12.292-12.734-24.144-16.569-36.973c-6.443-21.555-10.774-43.73,3.102-64.629
		c5.218,5.604,16.897,8.89,11.999,18.75c-6.95,13.991-8.979,28.142-7.333,43.076c0.381,3.455,3.798,6.575,5.819,9.85
		c-0.049-3.07-0.153-6.141-0.136-9.211c0.034-6.295-1.348-13.104,0.608-18.745c2.089-6.022-0.694-17.783,8.571-16.862
		c7.294,0.725,6.882,11.23,7.622,18.585c2.124,21.098,4.839,42.136,7.321,63.198c0.091,0.787,0.182,1.573,0.273,2.36
		C254.867,609.435,254.438,591.215,246.158,590.771z"/>
	<path fill="#D88F6E" d="M797.379,488.953c20.656,36.955,0.761,68.821-12.731,101.485c-0.453,0.486-0.91,0.977-1.367,1.468
		c0,0,0.1-0.085,0.1-0.084c-5.929,3.836-11.859,7.672-17.788,11.507c0.523-6.714,1.045-13.428,1.568-20.142
		c1.222-9.402,2.443-18.803,3.665-28.205c-0.297-5.227-0.593-10.454-0.89-15.682c0.444-3.221,0.888-6.442,1.332-9.662
		c0.802-2.659,1.604-5.319,2.406-7.978c1.649-2.144,3.298-4.288,4.948-6.432c1.787,1.897,4.586,3.524,5.177,5.739
		c1.961,7.352,3.661,14.863,4.422,22.417c0.567,5.629-0.474,11.42-0.799,17.138c5.999-6.58,7.328-14.684,6.916-23.074
		c-0.21-4.262-1.382-8.547-2.608-12.677C787.904,511.883,779,498.306,797.379,488.953z"/>
	<path fill="#5D4838" d="M627.612,175.007c1.275,0.409,8.581-0.075,9.881,0.255c0.035-0.887,5.601,2.114,5.311,1.351
		c-0.869-2.289,5.25,5.009,4.238,2.775c2.915,0.929,6.14,1.346,8.684,2.888c6.702,4.061,13.413,8.218,19.577,13.034
		c25.555,19.966,91.475,101.853,60.099,73.561c-15.23-13.549-27.753-40.862-68.685-69.983
		c-26.735-19.021-44.544-35.119-64.772-40.054C610.15,157.71,621.529,173.053,627.612,175.007z M654.469,191.13
		c0.04-0.261,0.079-0.522,0.119-0.783c-0.177,0.04-0.393,0.032-0.516,0.136c-0.091,0.076-0.061,0.297-0.085,0.454
		C654.147,191.001,654.308,191.066,654.469,191.13z"/>
	<path fill="#5D4838" d="M267.163,597.809c-2.482-21.062-5.197-42.1-7.321-63.198c-0.741-7.355-0.329-17.86-7.622-18.585
		c-9.266-0.921-6.482,10.84-8.571,16.862c-1.956,5.642-0.574,12.45-0.608,18.745c-0.017,3.07,0.087,6.141,0.136,9.211
		c-2.02-3.274-5.438-6.395-5.819-9.85c-1.646-14.934,0.382-29.085,7.333-43.076c4.898-9.86-6.781-13.146-11.999-18.75
		c-1.479-2.918-2.962-5.835-4.444-8.752c3.849,1.396,8.485,1.874,11.394,4.368c7.429,6.367,14.089,13.631,21.056,20.537
		C262.853,536.15,265.008,566.979,267.163,597.809z"/>
	<path fill="#5D4838" d="M797.379,488.953c-18.379,9.353-9.475,22.93-5.648,35.818c1.226,4.13,2.398,8.415,2.608,12.677
		c0.413,8.39-0.917,16.494-6.916,23.074c0.325-5.719,1.367-11.51,0.799-17.138c-0.761-7.554-2.461-15.065-4.422-22.417
		c-0.591-2.216-3.39-3.843-5.177-5.739c-1.649,2.144-3.298,4.288-4.947,6.43c-1.017,1.173-2.034,2.348-3.052,3.522
		c-12.629-29.847,0.134-61.785,24.539-60.416c10.521,0.59,17.943,6.823,19.701,18.093c-6.71-10.968-15.045-19.829-29.189-14.391
		c-14.631,5.625-16.398,18.354-14.845,32.055c0.169,1.492,0.648,2.949,0.983,4.422c1.064-1.023,2.182-1.995,3.183-3.076
		c5.634-6.083,10.858-12.626,17.043-18.08c2.464-2.173,7.033-1.961,10.643-2.834C800.913,483.62,799.146,486.286,797.379,488.953z"
		/>
	<path fill="#5D4838" d="M521.767,130.208c23.45,4.462,47.704,9.064,71.942,13.749c0.711,0.137,1.254,1.145,1.876,1.746
		c-1.141,0.567-2.401,1.788-3.407,1.606c-36.855-6.655-73.994-8.879-111.319-6.305c-10.515,0.725-20.849,3.877-31.317,5.604
		c-2.689,0.444-5.574-0.299-8.369-0.497c2.44-1.422,4.737-3.695,7.343-4.134C472.428,137.949,496.394,134.238,521.767,130.208z"/>
	<path fill="#5D4838" d="M260.667,490.086c-3.685-15.21-12.029-26.178-28.906-22.095c-15.636,3.783-17.579,18.971-18.236,31.986
		c-0.76,15.054,1.281,30.249,2.106,45.382c-14.076-18.464-4.534-70.149,14.585-80.01c8.949-4.616,16.089,0.207,22.251,4.831
		C258.475,474.688,263.803,481.062,260.667,490.086z"/>
	<path fill="#5D4838" d="M767.16,583.187c-0.523,6.714-1.045,13.428-1.568,20.142c5.929-3.836,11.859-7.671,17.788-11.507
		c-2.612,15.501-26.807,15.349-24.836,34.309c0.373,3.593-0.373,7.302-0.602,10.958c4.161-2.352,8.412-4.562,12.446-7.116
		c2.089-1.322,3.791-3.254,5.668-4.91c-2.777,9.42-10.446,15.293-18.743,13.536c-6.719-1.423-1.097-9.338-0.158-14.271
		c3.353-17.604,6.938-35.163,10.435-52.74C767.448,575.454,767.304,579.32,767.16,583.187z"/>
	<path fill="#5D4838" d="M215.84,547.207c6.258,30.939,22.114,56.969,42.29,80.478c3.98,4.638,11.031,6.64,16.666,9.858
		c-4.434,4.834-7.781,0.47-11.279-1.451C244.351,625.568,212.612,566.295,215.84,547.207z"/>
	<path fill="#5D4838" d="M566.504,859.943c-27.817,10.166-56.425,7.237-84.853,4.439c-9.155-0.901-18.02-4.752-27.018-7.254
		C491.705,866.783,529.013,867.004,566.504,859.943z"/>
	<path fill="#5F7AAF" d="M418.24,850.905c-6.709-2.267-16.258,7.47-19.118-0.526c-2.086-5.834,9.351-8.48,15.171-7.482
		c6.64,1.138,12.674,5.816,18.971,8.956C428.249,851.546,423.233,851.238,418.24,850.905z"/>
	<path fill="#5F7AAF" d="M613.953,841.907c9.485,1.085,15.922,2.513,19.612,9.233c-1.68,0.52-3.384,1.556-5.036,1.477
		c-10.042-0.478-20.073-1.209-30.107-1.856C604.215,847.459,610.008,844.156,613.953,841.907z"/>
	<path fill="#5D4838" d="M760.957,314.298"/>
	<path fill="#5D4838" d="M246.158,590.771c8.28,0.444,8.709,18.664,21.278,9.398c1.689,6.736,3.378,13.471,5.066,20.207
		C267.741,606.93,249.418,605.553,246.158,590.771z"/>
	<path fill="#5D4838" d="M752.967,545.431c-0.069-22.935-3.591-45.964,1.844-68.752
		C754.196,499.596,753.582,522.513,752.967,545.431z"/>
	<path fill="#5D4838" d="M350.954,751.956c12.081,10.785,24.162,21.571,36.242,32.355
		C371.605,777.457,359.301,766.923,350.954,751.956z"/>
	<path fill="#5D4838" d="M590.102,908.546c7.177-12.306,22.187-21.864,13.892-39.598c6.576,0.276,7.751,11.492,0.928,23.355
		C601.354,898.507,595.128,903.181,590.102,908.546z"/>
	<path fill="#5D4838" d="M276.644,500.091c0.562,18.257,1.124,36.513,1.686,54.77C278.33,538.002,276.233,518.042,276.644,500.091z"
		/>
	<path fill="#5D4838" d="M588.542,676.99c17.286-3.725,34.633-7.771,48.05,9.049C622.23,674.234,605.07,677.29,588.542,676.99z"/>
	<path fill="#5D4838" d="M381.105,746.607c-3.435-11.924-6.004-23.863-0.681-35.953
		C380.651,722.639,380.878,734.623,381.105,746.607z"/>
	<path fill="#FDCA9A" d="M767.16,583.187c0.144-3.866,0.287-7.733,0.431-11.599c0.146-3.282,0.292-6.565,0.436-9.847
		c0.931-2.253,1.865-4.506,2.798-6.758C769.604,564.383,768.382,573.785,767.16,583.187z"/>
	<path fill="#5D4838" d="M552.377,680.649c8.255-5.395,17.366-3.471,26.299-3.076C569.91,678.599,561.143,679.624,552.377,680.649z"
		/>
	<path fill="#5D4838" d="M407.602,677.201c11.84-5.684,23.704-3.492,35.572-0.109C431.316,677.127,419.459,677.164,407.602,677.201z
		"/>
	<path fill="#5D4838" d="M701.078,722.853c5.239-9.785,10.477-19.569,15.715-29.355C714.684,704.959,710.05,715.067,701.078,722.853
		z"/>
	<path fill="#5D4838" d="M380.67,708.565c0.904-12.432,6.688-21.655,17.935-27.289C392.627,690.373,386.649,699.469,380.67,708.565z
		"/>
	<path fill="#5D4838" d="M423.25,799.481c5.946,5.08,11.892,10.16,17.838,15.24C433.628,811.414,423.93,810.725,423.25,799.481z"/>
	<path fill="#5D4838" d="M770.826,554.982c-0.933,2.253-1.867,4.505-2.798,6.758c-1.396-7.652-3.156-15.336,1.908-22.44
		C770.232,544.527,770.529,549.755,770.826,554.982z"/>
	<path fill="#5D4838" d="M737.229,639.468c1.991-7.369,3.981-14.738,5.971-22.106C741.21,624.73,739.219,632.099,737.229,639.468z"
		/>
	<path fill="#5D4838" d="M749.463,587.114c0.897-5.984,1.794-11.967,2.691-17.951C751.256,575.147,750.36,581.13,749.463,587.114z"
		/>
	<path fill="#5D4838" d="M755.378,466.805c0.955-6.765,1.91-13.53,2.865-20.294C757.288,453.275,756.333,460.04,755.378,466.805z"/>
	<path fill="#5D4838" d="M596.47,868.668c-5.404-1.281-14.404,5.609-14.996-6.602C586.472,864.267,591.471,866.468,596.47,868.668z"
		/>
	<path fill="#5D4838" d="M478.128,680.865c5.819,0.722,11.638,1.444,17.457,2.165C489.766,682.308,483.947,681.587,478.128,680.865z
		"/>
	<path fill="#5D4838" d="M717.136,692.517c2.715-6.016,5.429-12.031,8.143-18.047C725.63,681.869,722.675,687.776,717.136,692.517z"
		/>
	<path fill="#5D4838" d="M389.731,780.543c-1.811-6.12-3.623-12.239-5.434-18.359C386.108,768.304,387.92,774.424,389.731,780.543z"
		/>
	<path fill="#5D4838" d="M652.316,182.376c-5.768-1.87-11.536-3.741-17.304-5.611C640.781,178.636,646.548,180.506,652.316,182.376z
		"/>
	<path fill="#5D4838" d="M668.605,190.837c-4.869-2.704-9.738-5.408-14.606-8.112C659.956,183.468,665.612,184.756,668.605,190.837z
		"/>
	<path fill="#5D4838" d="M761.452,422.72c0.892-4.779,1.784-9.559,2.676-14.338C763.236,413.162,762.344,417.941,761.452,422.72z"/>
	<path fill="#5D4838" d="M534.941,682.928c5.048-0.672,10.095-1.343,15.143-2.015C545.037,681.585,539.989,682.257,534.941,682.928z
		"/>
	<path fill="#5D4838" d="M449.216,864.43c-2.357,7.402-8.133,3.878-12.77,3.997C440.703,867.095,444.959,865.762,449.216,864.43z"/>
	<path fill="#5D4838" d="M278.943,570.343c0.661,4.733,1.321,9.465,1.982,14.198C280.264,579.808,279.604,575.075,278.943,570.343z"
		/>
	<path fill="#5D4838" d="M693.261,734.12c2.481-3.523,4.961-7.045,7.442-10.568C700.52,728.693,699.658,733.355,693.261,734.12z"/>
	<path fill="#5D4838" d="M743.589,613.315c0.888-3.196,1.776-6.391,2.663-9.587C745.365,606.923,744.477,610.119,743.589,613.315z"
		/>
	<path fill="#5D4838" d="M275.136,637.241c-0.726-4.082-1.453-8.164-2.179-12.245C273.683,629.077,274.41,633.159,275.136,637.241z"
		/>
	<path fill="#5D4838" d="M450.945,677.55c4.119,0.694,8.238,1.388,12.358,2.081C459.183,678.937,455.064,678.244,450.945,677.55z"/>
	<path fill="#5D4838" d="M725.986,671.577c1.659-3.944,3.319-7.889,4.978-11.833C732.688,665.111,730.147,668.685,725.986,671.577z"
		/>
	<path fill="#5D4838" d="M425.728,889.686c1.826,3.047,3.652,6.094,5.478,9.141C429.38,895.78,427.554,892.733,425.728,889.686z"/>
	<path fill="#5D4838" d="M433.047,696.773c-3.904,0.056-7.808,0.111-11.712,0.167C425.176,692.461,429.087,692.875,433.047,696.773z
		"/>
	<path fill="#5D4838" d="M399.771,176.44c-3.621,0.988-7.242,1.976-10.863,2.964C392.529,178.417,396.15,177.429,399.771,176.44z"/>
	<path fill="#5D4838" d="M533.119,930.939c3.597-0.635,7.194-1.27,10.791-1.906C540.975,933.417,537.202,933.057,533.119,930.939z"
		/>
	<path fill="#5D4838" d="M452.6,821.161c3.732,1.709,7.463,3.418,11.195,5.125C458.89,827.143,454.767,826.29,452.6,821.161z"/>
	<path fill="#5D4838" d="M800.276,590.731c1.888-3.871,3.776-7.742,5.664-11.614C804.051,582.988,802.163,586.86,800.276,590.731z"
		/>
	<path fill="#5D4838" d="M785.397,611.889c2.409-3.2,4.819-6.399,7.228-9.599C790.216,605.49,787.807,608.689,785.397,611.889z"/>
	<path fill="#5D4838" d="M485.467,928.987c3.469,0.682,6.938,1.364,10.407,2.045C491.902,932.909,488.223,933.3,485.467,928.987z"/>
	<path fill="#5D4838" d="M396.327,742.286c0.726,3.464,1.451,6.928,2.177,10.392C394.086,749.988,394.331,746.32,396.327,742.286z"
		/>
	<path fill="#5D4838" d="M678.472,197.578c-3.02-2.111-6.04-4.221-9.059-6.332C672.432,193.357,675.452,195.467,678.472,197.578z"/>
	<path fill="#5D4838" d="M405.267,772.812c1.581,2.959,3.163,5.919,4.744,8.878C404.886,780.624,404.335,777.114,405.267,772.812z"
		/>
	<path fill="#5D4838" d="M383.668,759.167c-0.703-3.045-1.405-6.09-2.107-9.135C382.264,753.077,382.966,756.122,383.668,759.167z"
		/>
	<path fill="#5D4838" d="M442.017,815.149c2.877,1.773,5.754,3.546,8.632,5.318C445.641,822.153,442.93,820.11,442.017,815.149z"/>
	<path fill="#5D4838" d="M466.428,679.934c3.148,0.191,6.295,0.383,9.443,0.574C472.723,680.317,469.576,680.125,466.428,679.934z"
		/>
	<path fill="#5D4838" d="M815.512,541.832c0.61-3.068,1.22-6.136,1.828-9.205C819.277,536.201,820.107,539.554,815.512,541.832z"/>
	<path fill="#FDCA9A" d="M770.623,525.18c1.018-1.175,2.036-2.349,3.052-3.522c-0.803,2.661-1.605,5.321-2.407,7.98
		C771.053,528.152,770.838,526.666,770.623,525.18z"/>
	<path fill="#5D4838" d="M758.553,439.465c0.694-2.809,1.388-5.618,2.082-8.427C759.941,433.847,759.247,436.656,758.553,439.465z"
		/>
	<path fill="#5D4838" d="M270.628,444.052c0.579,2.792,1.158,5.585,1.737,8.378C271.786,449.637,271.207,446.845,270.628,444.052z"
		/>
	<path fill="#5D4838" d="M812.685,554.651c0.776-3.096,1.551-6.192,2.327-9.288C814.236,548.459,813.461,551.555,812.685,554.651z"
		/>
	<path fill="#5D4838" d="M746.514,600.24c0.756-2.675,1.512-5.35,2.268-8.025C748.025,594.889,747.27,597.565,746.514,600.24z"/>
	<path fill="#5D4838" d="M446.704,914.03c2.894,1.764,5.788,3.529,8.682,5.292C452.492,917.558,449.598,915.794,446.704,914.03z"/>
	<path fill="#5D4838" d="M817.623,493.775c-0.767-2.627-1.534-5.254-2.301-7.881C816.089,488.521,816.856,491.148,817.623,493.775z"
		/>
	<path fill="#5D4838" d="M731.464,657.547c0.945-2.456,1.889-4.912,2.834-7.367C733.353,652.636,732.409,655.091,731.464,657.547z"
		/>
	<path fill="#5D4838" d="M398.644,681.24c2.351-1.193,4.702-2.385,7.053-3.577C403.347,678.855,400.995,680.047,398.644,681.24z"/>
	<path fill="#5D4838" d="M809.312,569.106c0.668-2.234,1.335-4.468,2.001-6.702C813.68,565.544,813.126,567.811,809.312,569.106z"/>
	<path fill="#5D4838" d="M398.871,756.169c0.758,1.955,1.515,3.909,2.273,5.864C397.36,761.251,396.269,759.426,398.871,756.169z"/>
	<path fill="#5D4838" d="M780.604,618.992c1.482-2.121,2.965-4.243,4.447-6.364C783.568,614.75,782.086,616.871,780.604,618.992z"/>
	<path fill="#5D4838" d="M734.741,647.936c0.707-2.297,1.415-4.593,2.121-6.89C736.155,643.342,735.448,645.639,734.741,647.936z"/>
	<path fill="#5D4838" d="M416.467,791.285c1.343,1.679,2.686,3.357,4.029,5.036C419.153,794.643,417.81,792.964,416.467,791.285z"/>
	<path fill="#5D4838" d="M329.966,723.97c0.883,1.268,1.766,2.537,2.65,3.804c-1.179-0.183-2.359-0.365-3.539-0.547
		C329.373,726.141,329.67,725.056,329.966,723.97z"/>
	<path fill="#5D4838" d="M576.616,856.99c-1.827,0.818-3.653,1.637-5.48,2.455C572.963,858.626,574.79,857.808,576.616,856.99z"/>
	<path fill="#5D4838" d="M278.334,279.811c-0.493,1.594-0.985,3.189-1.478,4.783C277.349,282.999,277.842,281.405,278.334,279.811z"
		/>
	<path fill="#5D4838" d="M464.024,923.028c1.873,0.767,3.745,1.534,5.618,2.3C467.769,924.561,465.896,923.795,464.024,923.028z"/>
	<path fill="#5D4838" d="M578.819,917.141c1.685-1.03,3.37-2.059,5.055-3.089C582.189,915.082,580.504,916.111,578.819,917.141z"/>
	<path fill="#5D4838" d="M806.623,575.962c0.738-1.481,1.476-2.962,2.213-4.444C808.098,573,807.36,574.481,806.623,575.962z"/>
	<path fill="#5D4838" d="M553.332,927.162c1.625-0.423,3.25-0.846,4.875-1.268C556.582,926.316,554.957,926.739,553.332,927.162z"/>
	<path fill="#5D4838" d="M560.974,925.369c1.807-0.854,3.615-1.708,5.422-2.562C564.588,923.661,562.781,924.515,560.974,925.369z"
		/>
	<path fill="#5D4838" d="M423.02,880.264c0.462,1.577,0.924,3.154,1.386,4.73C423.944,883.418,423.482,881.841,423.02,880.264z"/>
	<path fill="#5D4838" d="M335.265,731.824c0.987,1.28,1.973,2.56,2.96,3.84C337.238,734.384,336.252,733.104,335.265,731.824z"/>
	<path fill="#5D4838" d="M426.584,868.894c-1.223,1.147-2.446,2.293-3.668,3.44C424.139,871.187,425.362,870.04,426.584,868.894z"/>
	<path fill="#5D4838" d="M341.169,740.151c1.01,1.283,2.019,2.565,3.029,3.848C343.188,742.716,342.178,741.434,341.169,740.151z"/>
	<path fill="#5D4838" d="M458.273,920.33c1.173,0.682,2.347,1.364,3.52,2.046C460.62,921.694,459.447,921.012,458.273,920.33z"/>
	<path fill="#5D4838" d="M410.512,782.801c0.913,1.35,1.827,2.699,2.741,4.048C412.339,785.499,411.426,784.15,410.512,782.801z"/>
	<path fill="#5D4838" d="M332.849,728.246c0.715,1.022,1.43,2.044,2.145,3.066C334.279,730.29,333.564,729.268,332.849,728.246z"/>
	<path fill="#5D4838" d="M338.555,736.434c0.784,1.104,1.567,2.209,2.352,3.313C340.123,738.642,339.339,737.538,338.555,736.434z"
		/>
	<path fill="#5D4838" d="M402.282,766.068c0.615,1.253,1.229,2.506,1.844,3.758C403.512,768.573,402.897,767.32,402.282,766.068z"/>
	<path fill="#5D4838" d="M413.662,787.659c0.798,1.018,1.596,2.037,2.395,3.054C415.259,789.695,414.461,788.677,413.662,787.659z"
		/>
	<path fill="#5D4838" d="M482.35,830.709c1.074,0.368,2.148,0.736,3.222,1.104c-0.655,0.469-1.311,0.939-1.966,1.408
		C483.187,832.384,482.769,831.546,482.35,830.709z"/>
	<path fill="#5D4838" d="M347.827,748.537c0.881,0.96,1.763,1.921,2.645,2.88C349.591,750.457,348.709,749.497,347.827,748.537z"/>
	<path fill="#5D4838" d="M388.815,784.583c0.43-0.721,0.86-1.441,1.291-2.162c0.313,0.536,0.626,1.071,0.939,1.607
		C390.301,784.213,389.558,784.398,388.815,784.583z"/>
	<path fill="#5D4838" d="M580.781,857.371c-0.792-0.191-1.584-0.381-2.376-0.572C579.198,856.99,579.989,857.18,580.781,857.371z"/>
	<path fill="#5D4838" d="M461.699,700.162c-0.814-0.12-1.629-0.24-2.443-0.36c0.458-0.463,0.916-0.927,1.374-1.391
		C460.986,698.994,461.342,699.578,461.699,700.162z"/>
	<path fill="#5D4838" d="M569.296,921.914c0.955-0.563,1.91-1.127,2.865-1.69C571.206,920.787,570.251,921.351,569.296,921.914z"/>
	<path fill="#5D4838" d="M397.313,716.922c-0.34,1.073-0.681,2.146-1.019,3.219C396.635,719.068,396.974,717.995,397.313,716.922z"
		/>
	<path fill="#5D4838" d="M474.897,926.371c0.767,0.375,1.534,0.751,2.301,1.126C476.431,927.122,475.664,926.746,474.897,926.371z"
		/>
	<path fill="#5D4838" d="M776.849,623.613c0.744-0.888,1.488-1.776,2.232-2.664C778.337,621.837,777.593,622.725,776.849,623.613z"
		/>
	<path fill="#5D4838" d="M752.465,554.974c0.112-0.833,0.224-1.665,0.336-2.498C752.689,553.309,752.577,554.141,752.465,554.974z"
		/>
	<path fill="#5D4838" d="M266.95,420.249c0.193,0.809,0.387,1.618,0.58,2.426C267.337,421.866,267.144,421.057,266.95,420.249z"/>
	<path fill="#5D4838" d="M689.937,208.787c-0.786-0.854-1.572-1.708-2.358-2.562C688.365,207.079,689.151,207.933,689.937,208.787z"
		/>
	<path fill="#5D4838" d="M686.443,205.165c-0.801-0.795-1.602-1.589-2.403-2.384C684.841,203.576,685.642,204.371,686.443,205.165z"
		/>
	<path fill="#5D4838" d="M469.001,827.412c1.013,0.558,2.027,1.116,3.04,1.673C471.028,828.527,470.015,827.969,469.001,827.412z"/>
	<path fill="#5D4838" d="M683.962,202.703c-0.803-0.791-1.605-1.581-2.408-2.372C682.357,201.122,683.159,201.913,683.962,202.703z"
		/>
	<path fill="#A22525" d="M478.971,996.759c-0.507-0.597-1.015-1.194-1.522-1.792C477.957,995.564,478.464,996.162,478.971,996.759z"
		/>
	<path fill="#5D4838" d="M519.454,671.079c-0.95,0.077-1.899,0.155-2.85,0.232c-4.206-1.49-8.704-2.449-12.554-4.578
		c-8.276-4.577-11.83-18.447-24.434-14.073c-10.496,3.643-18.343,2.899-24.036-7.26c-0.178-1.085-0.357-2.17-0.535-3.255
		c0.025-3.359,0.05-6.717,0.074-10.076c0.13-0.699,0.261-1.399,0.391-2.099c1.582-1.558,3.163-3.116,4.744-4.674
		c-0.262,2.46-0.67,4.915-0.762,7.381c-0.405,10.876,1.305,19.909,15.707,15.017c6.977-2.37,13.39-2.228,19.688,1.594
		c0.171,0.233,0.399,0.369,0.687,0.407c10.183,12.841,21.305,23.128,34.632,4.219c10.149-14.4,24.173-2.105,35.434-6.898
		c0,0,0.056-0.065,0.055-0.066c1.23-1.656,3.284-3.197,3.531-4.988c0.636-4.609,0.471-9.328,0.626-14.003
		c1.844,1.661,3.688,3.321,5.532,4.981c-0.047,3.163-0.095,6.325-0.14,9.489c-4.288,6.566-7.91,16.541-17.775,12.031
		c-16.342-7.471-22.896,4.633-31.669,13.166c-0.353,0.012-0.669,0.127-0.948,0.346C523.053,669.009,521.253,670.044,519.454,671.079
		z"/>
	<path fill="#5D4838" d="M538.563,516.832c2.729-8.459,5.722-17.739,8.716-27.018c0.548,8.589,0.929,17.193,1.677,25.764
		c1.684,19.298,3.62,38.575,5.248,57.877c0.19,2.258-0.906,4.624-1.406,6.94c-1.589-1.804-4.242-3.419-4.602-5.442
		C544.853,556.187,541.904,537.351,538.563,516.832z"/>
	<path fill="#D88F6E" d="M455.58,645.401c5.693,10.159,13.54,10.903,24.036,7.26c12.604-4.375,16.158,9.496,24.434,14.073
		c3.851,2.13,8.349,3.089,12.554,4.578c-16.73,2.218-28.546-11.795-44.164-13.363C464.44,657.145,455.768,656.868,455.58,645.401z"
		/>
	<path fill="#D88F6E" d="M565.641,647.016c-11.261,4.793-25.285-7.502-35.434,6.898c-13.327,18.909-24.449,8.621-34.632-4.219
		c16.296,9.937,29.788,4.932,44.612-5.156C545.602,640.854,556.982,645.934,565.641,647.016z"/>
	<path fill="#D88F6E" d="M436.308,458.285c-21.894,0-34.561,0.114-47.223-0.06c-4.571-0.063-9.133-0.816-13.699-1.254
		c3.842-1.816,7.862-5.472,11.493-5.119c13.588,1.32,27.962-3.829,40.724,4.406c1.336,0.862,2.203,2.45,3.288,3.702
		C429.646,460.344,428.402,460.728,436.308,458.285z"/>
	<path fill="#D88F6E" d="M525.801,667.627c8.774-8.533,15.327-20.637,31.669-13.166c9.865,4.51,13.486-5.465,17.775-12.031
		c0.515,16.766-13.697,13.928-23.142,17.181C543.443,662.594,534.577,664.979,525.801,667.627z"/>
	<path fill="#D88F6E" d="M624.679,451.91c7.234,0.95,15.158,1.961,23.067,3.078c0.749,0.106,1.404,0.877,2.102,1.339
		c-1.061,0.305-2.106,0.791-3.185,0.886c-13.914,1.223-27.828,2.447-41.756,3.501c-1.752,0.132-3.577-0.71-5.368-1.101
		c3.024-2.005,5.805-4.888,9.13-5.807C613.524,452.463,618.768,452.531,624.679,451.91z"/>
	<path fill="#D88F6E" d="M494.887,649.288c-6.298-3.822-12.71-3.964-19.688-1.594c-14.401,4.893-16.111-4.141-15.707-15.017
		c0.092-2.466,0.5-4.921,0.762-7.381c-1.581,1.558-3.163,3.116-4.744,4.674c2.088-4.089,3.172-9.964,6.505-11.84
		c4.696-2.642,2.718,2.758,2.741,4.855c0.016,1.469-1.4,2.914-1.537,4.428c-1.049,11.603-3.489,24.143,16.077,16.453
		C484.487,641.827,492.218,640.33,494.887,649.288z"/>
	<path fill="#5D4838" d="M566.171,493.758c-15.549,27.838,11.846,32.319,24.404,44.869c-13.2-5.53-25.937-12.732-31.914-25.826
		C556.695,508.494,563.42,500.219,566.171,493.758z"/>
	<path fill="#5D4838" d="M615.378,464.217c-19.171,3.957-35.789,12.376-48.446,27.719
		C577.55,473.03,594.391,465.001,615.378,464.217z"/>
	<path fill="#5D4838" d="M691.852,489.103c-13.126-12.026-28.734-19.491-45.528-24.776
		C665.08,466.007,680.422,473.961,691.852,489.103z"/>
	<path fill="#D88F6E" d="M575.385,632.941c-1.844-1.661-3.688-3.321-5.532-4.981c-0.155,4.675,0.01,9.394-0.626,14.003
		c-0.247,1.791-2.301,3.332-3.531,4.988c-0.073-7.603-0.229-15.208-0.168-22.811c0.017-2.079,0.592-4.178,1.163-6.198
		c0.075-0.264,2.308-0.392,2.437-0.098C571.317,622.831,573.332,627.894,575.385,632.941z"/>
	<path fill="#5D4838" d="M607.54,544.933c16.328,0.008,32.656,0.015,48.984,0.023C640.193,549.801,623.865,551.003,607.54,544.933z"
		/>
	<path fill="#5D4838" d="M667.755,542.023c9.987-6.37,19.975-12.74,29.962-19.109C689.766,532.475,680.475,539.937,667.755,542.023z
		"/>
	<path fill="#5D4838" d="M697.713,522.92c8.278-13.026-1.79-22.884-5.836-33.781C698.117,499.657,712.097,508.839,697.713,522.92z"
		/>
	<path fill="#5D4838" d="M460.989,524.353c4.957-7.328,11.718-14.156,6.727-24.244C476.098,511.138,472.109,518.735,460.989,524.353
		z"/>
	<path fill="#5D4838" d="M399.164,463.722c-8.022,1.007-16.044,2.014-24.066,3.021C383.12,465.736,391.142,464.729,399.164,463.722z
		"/>
	<path fill="#5D4838" d="M329.323,507.22c1.052,4.982,2.104,9.963,3.157,14.945C326.439,518.238,323.955,513.558,329.323,507.22z"/>
	<path fill="#5D4838" d="M639.668,463.906c-6.298-0.004-12.596-0.008-18.895-0.013C627.071,463.897,633.369,463.902,639.668,463.906
		z"/>
	<path fill="#5D4838" d="M434.216,541.626c5.048-2.805,10.096-5.61,15.145-8.414C444.313,536.017,439.265,538.821,434.216,541.626z"
		/>
	<path fill="#5D4838" d="M466.852,497.415c-2.745-4.063-5.489-8.126-8.233-12.189C461.363,489.289,464.108,493.352,466.852,497.415z
		"/>
	<path fill="#5D4838" d="M406.931,547.863c4.357-0.788,8.713-1.575,13.069-2.363C415.643,546.287,411.287,547.075,406.931,547.863z"
		/>
	<path fill="#D88F6E" d="M455.119,632.07c-0.025,3.359-0.049,6.717-0.074,10.076C450.88,638.756,450.912,635.397,455.119,632.07z"/>
	<path fill="#5D4838" d="M443.37,472.871c-3.841-1.795-7.682-3.589-11.523-5.384C435.688,469.282,439.529,471.076,443.37,472.871z"
		/>
	<path fill="#5D4838" d="M455.809,482.167c-2.827-2.318-5.654-4.636-8.481-6.953C450.155,477.532,452.982,479.85,455.809,482.167z"
		/>
	<path fill="#5D4838" d="M417.609,464.31c-3.199-0.173-6.398-0.347-9.597-0.52C411.211,463.963,414.41,464.136,417.609,464.31z"/>
	<path fill="#5D4838" d="M658.18,544.689c2.586-0.776,5.172-1.553,7.758-2.329C663.352,543.136,660.766,543.912,658.18,544.689z"/>
	<path fill="#5D4838" d="M429.067,466.972c-2.655-0.804-5.311-1.608-7.966-2.413C423.756,465.364,426.412,466.168,429.067,466.972z"
		/>
	<path fill="#5D4838" d="M709.787,443.889c-2.044-1.983-4.087-3.965-6.131-5.948C705.7,439.924,707.744,441.907,709.787,443.889z"/>
	<path fill="#5D4838" d="M336.479,491.602c-1.376,2.449-2.751,4.899-4.127,7.348C333.728,496.501,335.103,494.052,336.479,491.602z"
		/>
	<path fill="#5D4838" d="M355.717,440.488c2.38-0.125,4.761-0.249,7.141-0.374C360.477,440.239,358.097,440.364,355.717,440.488z"/>
	<path fill="#5D4838" d="M336.029,525.697c1.702,1.51,3.404,3.02,5.106,4.53C339.433,528.717,337.731,527.207,336.029,525.697z"/>
	<path fill="#D88F6E" d="M519.454,671.079c1.8-1.035,3.599-2.07,5.4-3.105C523.054,669.009,521.254,670.044,519.454,671.079z"/>
	<path fill="#5D4838" d="M600.384,542.503c1.828,0.735,3.655,1.47,5.483,2.204C604.039,543.973,602.212,543.238,600.384,542.503z"/>
	<path fill="#5D4838" d="M593.63,539.64c1.694,0.813,3.388,1.626,5.082,2.44C597.018,541.266,595.324,540.453,593.63,539.64z"/>
	<path fill="#5D4838" d="M699.083,434.316c-1.323-1.05-2.647-2.101-3.97-3.151C696.437,432.215,697.76,433.266,699.083,434.316z"/>
	<path fill="#5D4838" d="M331.593,434.238c-1.389,0.95-2.779,1.9-4.168,2.85C328.814,436.137,330.203,435.187,331.593,434.238z"/>
	<path fill="#5D4838" d="M383.442,546.553c1.467,0.394,2.935,0.788,4.402,1.181C386.377,547.341,384.91,546.947,383.442,546.553z"/>
	<path fill="#5D4838" d="M610.642,446.397c1.379-0.569,2.757-1.139,4.137-1.708C613.4,445.259,612.021,445.828,610.642,446.397z"/>
	<path fill="#5D4838" d="M378.271,545.533c1.212,0.247,2.424,0.494,3.635,0.741C380.695,546.027,379.483,545.78,378.271,545.533z"/>
	<path fill="#5D4838" d="M687.195,443.9c1.419,0.554,2.838,1.107,4.258,1.661C690.033,445.007,688.614,444.453,687.195,443.9z"/>
	<path fill="#5D4838" d="M346.864,533.826c0.929,0.712,1.858,1.424,2.787,2.136C348.722,535.25,347.793,534.538,346.864,533.826z"/>
	<path fill="#5D4838" d="M676.434,440.93c1.049,0.333,2.099,0.667,3.148,1C678.533,441.597,677.484,441.263,676.434,440.93z"/>
	<path fill="#5D4838" d="M326.105,438.555c-0.7,0.691-1.401,1.381-2.102,2.071C324.704,439.935,325.404,439.245,326.105,438.555z"/>
	<path fill="#5D4838" d="M566.073,443.566c-0.839,0.817-1.679,1.633-2.519,2.45C564.394,445.199,565.234,444.382,566.073,443.566z"
		/>
	<path fill="#5D4838" d="M458.167,484.593c-0.789-0.811-1.578-1.622-2.367-2.433C456.59,482.971,457.379,483.782,458.167,484.593z"
		/>
	<path fill="#5D4838" d="M370.904,467.571c-0.999,0.504-1.999,1.008-2.998,1.511C368.904,468.578,369.904,468.074,370.904,467.571z"
		/>
	<path fill="#5D4838" d="M331.877,500.478c-0.568,0.961-1.137,1.923-1.705,2.885C330.74,502.402,331.309,501.44,331.877,500.478z"/>
	<path fill="#5D4838" d="M366.818,542.845c1.026,0.482,2.053,0.965,3.079,1.447C368.871,543.809,367.844,543.327,366.818,542.845z"
		/>
	<path fill="#5D4838" d="M358.541,540.172c1.049,0.484,2.097,0.967,3.146,1.451C360.638,541.139,359.589,540.656,358.541,540.172z"
		/>
	<path fill="#5D4838" d="M458.405,526.726c0.829-0.764,1.658-1.529,2.487-2.293C460.063,525.197,459.234,525.961,458.405,526.726z"
		/>
	<path fill="#121314" d="M579.927,724.614c-56.91,13.414-112.988,3.2-169.084-6.046c-4.178-0.688-7.319-3.463-5.648-7.979
		c1.976-5.341,6.658-10.352,12.215-7.748c52.621,24.667,107.23,19.959,162.15,11.938c1.991-0.513,3.981-1.027,5.972-1.54
		c7.396-2.884,14.793-5.768,22.189-8.652c3.215-0.307,6.43-0.614,9.645-0.921c0.465,0.215,0.93,0.43,1.393,0.647
		c0.266,0.197,0.534,0.393,0.802,0.589c7.04,28.549-20.518,5.176-25.374,16.641c-0.66,1.559-5.855,1.196-8.951,1.721
		C583.466,723.713,581.696,724.164,579.927,724.614z"/>
	<path fill="#D88F6E" d="M517.465,765.842c-11.421-1.889-20.653-2.807-29.51-5.146c-4.277-1.129-7.849-4.932-11.74-7.524
		c3.835-0.592,7.659-1.599,11.508-1.705c19.384-0.533,38.773-0.917,58.163-1.081c1.984-0.017,3.984,1.781,5.976,2.737
		c-1.422,1.754-2.538,4.582-4.315,5.086C537.03,761.195,526.359,763.641,517.465,765.842z"/>
	<path fill="#5D4838" d="M617.366,703.667c-3.215,0.307-6.43,0.614-9.645,0.921C610.516,699.882,613.708,699.336,617.366,703.667z"
		/>
	<path fill="#5D4838" d="M585.531,713.24c-1.991,0.513-3.981,1.027-5.972,1.54C581.55,714.266,583.541,713.753,585.531,713.24z"/>
	<path fill="#5D4838" d="M579.927,724.614c1.77-0.451,3.539-0.901,5.309-1.35C583.467,723.716,581.697,724.165,579.927,724.614z"/>
	<path fill="#5D4838" d="M619.561,704.902c-0.268-0.196-0.536-0.391-0.802-0.589C619.161,704.326,619.428,704.523,619.561,704.902z"
		/>
	<path fill="#5D4838" d="M783.281,591.905c0.457-0.491,0.914-0.982,1.367-1.468C784.189,590.93,783.735,591.418,783.281,591.905z"/>
	<path fill="#121314" d="M360.864,189.958c-0.158,0.07-0.317,0.14-0.475,0.21c-0.049-0.26-0.097-0.519-0.146-0.779
		c0.178,0.034,0.394,0.019,0.521,0.118C360.857,189.581,360.835,189.803,360.864,189.958z"/>
	<path fill="#FAFAFA" d="M341.45,516.76c-0.164-0.366-0.327-0.732-0.49-1.097c2.099-5.977,4.197-11.954,6.296-17.932l0.133,0.062
		c0.765-0.821,1.53-1.643,2.296-2.464c0.354-0.455,0.707-0.91,1.061-1.365c1.615-1.544,3.231-3.087,4.846-4.631
		c0,0,0.013-0.013,0.013-0.013c2.121-1.419,4.242-2.838,6.363-4.258c0.319-0.074,0.617-0.199,0.893-0.375
		c0.927-0.61,1.853-1.22,2.78-1.83c1.377-0.37,2.754-0.739,4.131-1.109c7.723,3.378-1.595,9.536,2.21,13.553
		c0.02,3.206,0.04,6.412,0.06,9.619c0.998,14.589,10.954,22.536,23.191,25.291c16.836,3.79,28.598-4.154,37.338-19.696
		c5.942-10.566-3.162-19.499,0.765-28.892c1.071,0.321,2.143,0.642,3.214,0.963c8.163,9.076,16.326,18.151,24.489,27.227
		c0.072,0.767,0.143,1.534,0.215,2.301c-0.191,0.828-0.382,1.657-0.574,2.485c0,0,0.006-0.006,0.006-0.006
		c-2.005,1.976-4.01,3.951-6.016,5.927c0,0,0.017-0.014,0.017-0.014c-11.108,6.021-22.215,12.042-33.323,18.063
		c-0.789,0.294-1.577,0.589-2.366,0.883c-0.677-0.201-1.354-0.401-2.031-0.602c-4.975,0.905-9.95,1.81-14.925,2.715
		c-0.742,0-1.483,0-2.225,0.001c-5.416-6.051-12.223-2.536-18.496-2.688c-0.692,0.211-1.385,0.421-2.077,0.632
		c-1.087-0.271-2.174-0.542-3.26-0.813C364.473,531.386,352.962,524.073,341.45,516.76z"/>
	<path fill="#C1C3C1" d="M461.039,509.815c-8.163-9.076-16.326-18.151-24.489-27.227
		C449.652,487.221,458.347,495.819,461.039,509.815z"/>
	<path fill="#C1C3C1" d="M341.45,516.76c11.511,7.313,23.023,14.626,34.534,21.939c-1.761-0.094-3.523-0.188-5.284-0.282
		c-0.977-0.523-1.955-1.046-2.932-1.57c-1.647-0.448-3.293-0.896-4.939-1.344c-1.182-0.661-2.365-1.322-3.547-1.983
		c-1.239-0.813-2.478-1.626-3.717-2.438c-1.893-1.241-3.787-2.483-5.681-3.725c-1.923-2.067-3.846-4.134-5.769-6.201
		c-0.901-1.038-1.803-2.077-2.705-3.116C341.424,517.615,341.437,517.188,341.45,516.76z"/>
	<path fill="#C1C3C1" d="M421.365,538.571c11.108-6.021,22.216-12.042,33.323-18.063C445.462,530,433.721,534.854,421.365,538.571z"
		/>
	<path fill="#C1C3C1" d="M381.322,538.88c6.273,0.152,13.08-3.363,18.496,2.688c-4.396,0.007-8.792,0.015-13.187,0.022
		C384.861,540.687,383.092,539.784,381.322,538.88z"/>
	<path fill="#5D4838" d="M347.256,497.732c-2.099,5.977-4.197,11.955-6.296,17.932C336.636,507.431,342.635,502.823,347.256,497.732
		z"/>
	<path fill="#C1C3C1" d="M402.043,541.568c4.975-0.905,9.95-1.81,14.925-2.715c-1.762,0.97-3.523,1.94-5.285,2.911
		C408.469,541.698,405.256,541.633,402.043,541.568z"/>
	<path fill="#5D4838" d="M381.322,538.88c1.77,0.903,3.539,1.807,5.309,2.71c-3.215,1.983-5.843,1.88-7.386-2.078
		C379.937,539.302,380.63,539.091,381.322,538.88z"/>
	<path fill="#5D4838" d="M411.682,541.763c1.762-0.97,3.523-1.94,5.285-2.911c0.677,0.201,1.355,0.401,2.032,0.602
		C416.56,540.224,414.121,540.993,411.682,541.763z"/>
	<path fill="#C1C3C1" d="M454.671,520.522c2.005-1.976,4.011-3.951,6.016-5.927C458.681,516.57,456.676,518.546,454.671,520.522z"/>
	<path fill="#7B7B7B" d="M361.968,485.064c-2.121,1.419-4.242,2.838-6.363,4.258C357.726,487.902,359.847,486.483,361.968,485.064z"
		/>
	<path fill="#7B7B7B" d="M355.592,489.334c-1.615,1.544-3.231,3.087-4.846,4.631C352.361,492.421,353.976,490.878,355.592,489.334z"
		/>
	<path fill="#5D4838" d="M349.884,527.358c1.894,1.242,3.788,2.484,5.681,3.725C353.671,529.841,351.777,528.6,349.884,527.358z"/>
	<path fill="#5D4838" d="M359.282,533.521c1.182,0.661,2.365,1.322,3.547,1.983C361.646,534.843,360.464,534.182,359.282,533.521z"
		/>
	<path fill="#5D4838" d="M341.41,518.042c0.902,1.039,1.803,2.078,2.705,3.116C343.213,520.118,342.312,519.08,341.41,518.042z"/>
	<path fill="#7B7B7B" d="M365.641,482.859c-0.927,0.61-1.853,1.22-2.78,1.83C363.788,484.079,364.715,483.469,365.641,482.859z"/>
	<path fill="#7B7B7B" d="M372.348,479.577c-0.857,0.433-1.714,0.865-2.571,1.298C370.634,480.442,371.491,480.01,372.348,479.577z"
		/>
	<path fill="#5D4838" d="M367.768,536.848c0.977,0.524,1.955,1.047,2.932,1.57C369.723,537.894,368.745,537.371,367.768,536.848z"/>
	<path fill="#C1C3C1" d="M460.681,514.601c0.191-0.828,0.382-1.657,0.574-2.485C461.063,512.944,460.872,513.772,460.681,514.601z"
		/>
	<path fill="#7B7B7B" d="M433.377,480.734c-0.985-0.461-1.971-0.923-2.956-1.384C431.406,479.811,432.392,480.272,433.377,480.734z"
		/>
	<path fill="#7B7B7B" d="M349.684,495.33c-0.765,0.821-1.53,1.643-2.296,2.464C348.154,496.973,348.919,496.151,349.684,495.33z"/>
	<path fill="#FAFAFA" d="M611.062,538.888c-0.542-0.085-1.085-0.169-1.627-0.254c-10.069-5.15-20.139-10.3-30.208-15.45
		c0,0-0.049-0.048-0.049-0.048c-3.079-2.886-6.157-5.772-9.236-8.659c-0.172-1.628-0.343-3.256-0.515-4.883
		c1.958-4.171,3.916-8.342,5.873-12.514c0.172-0.279,0.409-0.484,0.711-0.615c0.69-0.476,1.381-0.952,2.071-1.428
		c0.365-0.473,0.73-0.947,1.094-1.42c0.792-0.707,1.585-1.414,2.377-2.121l0.173-0.162c0.756-0.746,1.512-1.492,2.268-2.239
		c0.356-0.188,0.711-0.375,1.067-0.563c1.025-0.818,2.051-1.636,3.076-2.454c0.983-0.303,1.965-0.606,2.948-0.91
		c0.895-0.625,1.79-1.25,2.685-1.875c1.236-0.351,2.471-0.702,3.707-1.052c0.713,1.764,1.427,3.527,2.14,5.291
		c-0.143,1.041-0.287,2.083-0.43,3.124c-6.829,3.162-4.484,9.907-3.303,13.85c1.713,5.716,6.587,10.484,10.114,15.656l0.02,0.021
		c10.851,14.237,24.374,13.882,38.495,6.258c18.539-10.01,15.37-27.801,14.893-44.46c0.895-0.069,1.79-0.139,2.685-0.208
		c0.955,0.332,1.911,0.664,2.866,0.996c0.914,0.641,1.828,1.282,2.741,1.923l-0.002-0.001c15.054,14.404,34.998,28.463,3.818,46.567
		c-4.981,2.892-10.402,5.026-15.619,7.51c-1.352,0.073-2.705,0.146-4.057,0.219c-7.424,0.862-14.847,1.723-22.271,2.585
		c-1.136-0.023-2.271-0.046-3.407-0.069C621.128,540.632,616.095,539.76,611.062,538.888z"/>
	<path fill="#7B7B7B" d="M655.896,538.769c5.217-2.484,10.638-4.618,15.619-7.51c31.18-18.104,11.236-32.163-3.818-46.567
		c13.465,5.216,24.195,16.312,22.151,29.124C687.308,529.741,671.635,536.27,655.896,538.769z"/>
	<path fill="#C1C3C1" d="M579.226,523.185c10.069,5.15,20.139,10.3,30.208,15.45C599.365,533.484,589.296,528.334,579.226,523.185z"
		/>
	<path fill="#C1C3C1" d="M629.568,541.573c7.424-0.862,14.847-1.723,22.271-2.585C644.415,539.85,636.992,540.711,629.568,541.573z"
		/>
	<path fill="#C1C3C1" d="M611.062,538.888c5.033,0.872,10.067,1.744,15.1,2.616C621.128,540.632,616.095,539.76,611.062,538.888z"/>
	<path fill="#C1C3C1" d="M569.942,514.478c3.079,2.886,6.157,5.772,9.236,8.659C576.099,520.25,573.02,517.364,569.942,514.478z"/>
	<path fill="#7B7B7B" d="M667.699,484.693c-0.914-0.641-1.828-1.282-2.741-1.923C665.871,483.411,666.785,484.052,667.699,484.693z"
		/>
	<path fill="#121314" d="M404.866,484.802c11.631,0.491,12.562,8.816,11.704,17.267c-0.962,9.472-8.795,12.294-16.481,11.633
		c-8.27-0.711-13.416-7.113-12.246-15.441c1.092-7.774,9.674-0.285,13.183-4.675C402.305,490.658,403.585,487.73,404.866,484.802z"
		/>
	<path fill="#FAFAFA" d="M404.866,484.802c-1.28,2.928-2.56,5.856-3.841,8.784c-5.762-0.396-13.023,0.722-13.344-7.617
		c-0.102-2.664,3.935-6.945,6.927-7.944C399.633,476.345,403.709,479.08,404.866,484.802z"/>
	<path fill="#C1C3C1" d="M581.726,491.334c0.757-0.746,1.513-1.492,2.269-2.238C583.238,489.842,582.482,490.588,581.726,491.334z"
		/>
	<path fill="#C1C3C1" d="M579.176,493.617c0.793-0.707,1.586-1.413,2.378-2.12C580.761,492.203,579.969,492.91,579.176,493.617z"/>
	<path fill="#121314" d="M629.631,490.577c3.448,0.534,2.805-8.803,8.175-3.454c5.588,5.567,6.681,12.359,2.971,19.021
		c-3.363,6.038-8.953,9.915-16.333,7.387c-7.107-2.435-12.015-7.48-11.286-15.505c0.632-6.952,6.344-1.842,9.462-3.141
		c1.159-0.483,2.359-0.869,3.541-1.3C627.317,492.583,628.474,491.58,629.631,490.577z"/>
	<path fill="#FAFAFA" d="M629.631,490.577c-1.157,1.003-2.314,2.006-3.471,3.008c-6.311-0.119-13.062-0.068-12.721-9.023
		c0.225-5.901,4.803-7.306,9.787-6.825C631.944,478.578,630.162,484.957,629.631,490.577z"/>
	<g>
		<path fill="#8C6239" d="M435.759,490.307c0,18.035-10.244,32.878-28.279,32.878s-33.155-12.593-33.155-30.628
			s10.925-28.693,28.96-28.693C421.32,463.864,435.759,472.272,435.759,490.307z"/>
		<path fill="#1A1A1A" d="M420.993,494.324c0,7.505-4.922,14.86-12.426,14.86s-14.6-6.335-14.6-13.84
			c0-7.505,6.008-12.024,13.513-12.024C414.985,483.321,420.993,486.82,420.993,494.324z"/>
		<path fill="#F2F2F2" d="M409.949,485.03c0,3.776-2.477,7.478-6.253,7.478c-3.776,0-7.347-3.188-7.347-6.965
			c0-3.776,3.023-6.051,6.8-6.051C406.926,479.493,409.949,481.253,409.949,485.03z"/>
	</g>
	<g>
		<path fill="#8C6239" d="M599.187,490.657c0,18.035,10.52,32.528,28.554,32.528s32.008-14.934,32.008-32.969
			c0-18.035-9.683-23.472-27.718-23.472S599.187,472.622,599.187,490.657z"/>
		<path fill="#1A1A1A" d="M614.229,494.324c0,7.505,4.922,14.86,12.426,14.86s14.6-6.335,14.6-13.84
			c0-7.505-6.008-12.024-13.513-12.024S614.229,486.82,614.229,494.324z"/>
		<path fill="#F2F2F2" d="M625.272,485.03c0,3.776,2.477,7.478,6.253,7.478c3.776,0,7.347-3.188,7.347-6.965
			c0-3.776-3.023-6.051-6.8-6.051C628.296,479.493,625.272,481.253,625.272,485.03z"/>
	</g>
	<path fill="#121314" d="M466.597,455.046c0,0-14.406-1.046-39.64-5.685c-25.234-4.639-52.751-17.402-76.516-6.553
		s-20.191,12.802-28.331,10.634s-2.682-1.462,0-6.932s23.87-35.736,55.811-28.583s68.062,16.649,75.732,20.734
		c7.671,4.085,14.738,9.333,15.452,12.462C469.82,454.252,466.597,455.046,466.597,455.046z"/>
	<path fill="#121314" d="M564.63,455.046c0,0,14.406-1.046,39.64-5.685c25.234-4.639,52.751-17.402,76.516-6.553
		c23.764,10.848,20.191,12.802,28.331,10.634c8.14-2.168,2.682-1.462,0-6.932c-2.682-5.47-23.87-35.736-55.811-28.583
		s-68.062,16.649-75.732,20.734c-7.671,4.085-14.738,9.333-15.452,12.462S564.63,455.046,564.63,455.046z"/>
	<path fill="#121314" d="M328.407,506.706l0.002-0.01c0.301-1.329,0.577-2.243,0.909-3.279c0.322-1.003,0.686-1.975,1.087-2.923
		c0.799-1.899,1.781-3.692,2.807-5.445c2.107-3.482,4.636-6.648,7.271-9.684c5.286-6.062,11.76-11.12,18.926-14.663
		c3.571-1.799,7.335-3.132,11.128-4.183c0.945-0.291,1.906-0.488,2.863-0.705l1.436-0.321l0.482-0.099l0.333-0.058l0.666-0.117
		l5.324-0.933l5.697-0.747c1.898-0.243,3.755-0.341,5.634-0.517c3.751-0.266,7.518-0.404,11.29-0.338
		c3.77,0.032,7.545,0.267,11.305,0.66c1.883,0.148,3.754,0.49,5.63,0.729c1.871,0.293,3.734,0.659,5.595,1.017
		c3.706,0.83,7.403,1.729,11.022,2.969c3.623,1.217,7.2,2.607,10.685,4.327l2.598,1.352l0.383,0.209l0.293,0.168l0.586,0.337
		l1.34,0.815c1.717,1.086,3.328,2.25,4.879,3.502c3.094,2.502,5.884,5.328,8.365,8.44c2.469,3.12,4.646,6.529,6.265,10.364
		c1.594,3.814,2.723,8.149,2.239,12.904v0l-0.078,1.221l-0.815,1.098c-0.66,0.888-1.176,1.512-1.77,2.227
		c-0.579,0.685-1.164,1.356-1.76,2.01c-1.19,1.311-2.413,2.577-3.676,3.797c-2.513,2.454-5.173,4.738-7.943,6.886
		c-5.541,4.291-11.569,7.973-17.953,10.956c-3.198,1.479-6.488,2.767-9.84,3.879c-3.348,1.132-6.784,1.992-10.245,2.714
		c-3.482,0.742-6.932,1.161-10.541,1.516c-3.225,0.27-6.842,0.489-10.255,0.568c-6.907,0.147-13.896-0.146-20.885-1.206
		c-6.98-1.045-13.972-2.859-20.652-5.682c-6.672-2.821-12.978-6.698-18.518-11.259c-1.386-1.135-2.741-2.3-4.04-3.492l-0.246-0.222
		l-0.061-0.056l-0.314-0.311l-0.109-0.111l-0.436-0.445c-0.299-0.309-0.557-0.56-0.909-0.945c-0.672-0.71-1.316-1.438-1.945-2.176
		c-1.254-1.535-2.616-3.223-3.777-5.978c-0.563-1.405-0.986-3.264-0.916-5.106C327.804,508.91,328.116,507.677,328.407,506.706z
		 M341.415,510.406c-0.199,0.527-0.185,0.631-0.183,0.45c0.004-0.179-0.073-0.381-0.044-0.235c0.102,0.327,0.701,1.373,1.545,2.404
		c0.436,0.537,0.878,1.066,1.334,1.576c0.198,0.238,0.524,0.577,0.795,0.872l0.424,0.457l0.106,0.114l0.027,0.029
		c0.065,0.066-0.469-0.467-0.231-0.23l0.053,0.05l0.211,0.201c1.121,1.084,2.262,2.115,3.42,3.116
		c4.621,4.005,9.672,7.283,15.178,9.794c5.506,2.497,11.431,4.224,17.562,5.307c6.13,1.098,12.46,1.54,18.837,1.571
		c3.232,0.004,6.255-0.094,9.658-0.286c3.007-0.225,6.176-0.512,9.211-1.086c3.056-0.557,6.1-1.228,9.074-2.151
		c2.979-0.904,5.915-1.963,8.783-3.199c5.724-2.496,11.193-5.636,16.259-9.353c2.53-1.859,4.974-3.847,7.272-5.977
		c1.155-1.058,2.272-2.155,3.344-3.277c0.538-0.56,1.059-1.128,1.568-1.698c0.484-0.547,1.036-1.198,1.38-1.634l-0.894,2.318v0
		c0.195-2.46-0.502-5.34-1.768-8.107c-1.256-2.779-3.049-5.468-5.118-7.937c-2.073-2.473-4.449-4.732-6.998-6.711
		c-2.588-2.012-5.195-3.566-8.255-4.983c-3.009-1.411-6.188-2.573-9.415-3.584c-3.223-1.037-6.559-1.769-9.895-2.45
		c-1.683-0.284-3.364-0.581-5.057-0.812c-1.703-0.176-3.388-0.459-5.102-0.554c-3.412-0.286-6.843-0.431-10.278-0.389
		c-3.434,0.008-6.874,0.206-10.303,0.519c-1.705,0.197-3.449,0.322-5.12,0.573l-5.009,0.751l-5.304,1.042l-0.663,0.13l-0.332,0.065
		l-0.083,0.016c-0.043,0.008,0.222-0.043,0.092-0.017l-0.037,0.009l-0.149,0.037l-1.195,0.296c-0.797,0.194-1.596,0.384-2.374,0.625
		c-3.15,0.866-6.185,2.02-9.086,3.397c-2.899,1.383-5.644,3.048-8.167,4.996c-2.514,1.959-4.796,4.203-6.818,6.661
		c-1.988,2.492-3.546,5.304-4.846,8.174c-0.674,1.424-1.236,2.892-1.795,4.33c-0.283,0.719-0.542,1.438-0.799,2.141
		c-0.245,0.671-0.493,1.483-0.605,1.907l-0.16,0.606L341.415,510.406z"/>
	<path fill="#121314" d="M690.042,510.855c-0.112-0.424-0.36-1.237-0.605-1.907c-0.257-0.703-0.516-1.422-0.799-2.141
		c-0.559-1.439-1.121-2.906-1.795-4.33c-1.3-2.87-2.859-5.682-4.846-8.174c-2.022-2.457-4.304-4.702-6.818-6.661
		c-2.523-1.947-5.268-3.613-8.167-4.996c-2.901-1.376-5.936-2.531-9.086-3.397c-0.778-0.242-1.577-0.432-2.374-0.625l-1.195-0.296
		l-0.149-0.037l-0.037-0.009c-0.13-0.026,0.135,0.025,0.092,0.017l-0.083-0.016l-0.331-0.065l-0.663-0.13l-5.304-1.042l-5.009-0.751
		c-1.671-0.251-3.415-0.376-5.12-0.573c-3.429-0.313-6.869-0.511-10.303-0.519c-3.435-0.042-6.866,0.103-10.278,0.389
		c-1.714,0.095-3.399,0.378-5.102,0.554c-1.693,0.23-3.374,0.527-5.057,0.812c-3.336,0.681-6.672,1.413-9.895,2.45
		c-3.227,1.011-6.406,2.173-9.415,3.584c-3.06,1.418-5.667,2.971-8.255,4.983c-2.55,1.979-4.925,4.238-6.998,6.711
		c-2.069,2.469-3.861,5.158-5.118,7.937c-1.266,2.766-1.962,5.646-1.768,8.107v0l-0.894-2.318c0.344,0.436,0.895,1.086,1.38,1.634
		c0.509,0.57,1.03,1.139,1.568,1.698c1.072,1.121,2.189,2.218,3.344,3.277c2.297,2.131,4.741,4.119,7.272,5.977
		c5.066,3.716,10.535,6.857,16.259,9.353c2.868,1.236,5.804,2.295,8.783,3.199c2.974,0.923,6.018,1.594,9.074,2.151
		c3.036,0.574,6.204,0.861,9.211,1.086c3.403,0.192,6.427,0.29,9.658,0.286c6.377-0.031,12.707-0.472,18.837-1.571
		c6.131-1.083,12.056-2.809,17.562-5.307c5.506-2.511,10.557-5.789,15.178-9.794c1.158-1.001,2.299-2.032,3.42-3.116l0.211-0.201
		l0.053-0.05c0.239-0.237-0.295,0.295-0.231,0.23l0.026-0.029l0.106-0.114l0.424-0.457c0.271-0.296,0.597-0.635,0.795-0.872
		c0.456-0.51,0.898-1.039,1.334-1.576c0.845-1.031,1.443-2.077,1.545-2.404c0.029-0.146-0.049,0.056-0.044,0.235
		c0.002,0.181,0.016,0.077-0.183-0.45l-0.051-0.135L690.042,510.855z M703.261,507.897c0.291,0.971,0.603,2.204,0.647,3.652
		c0.07,1.843-0.353,3.702-0.916,5.106c-1.162,2.755-2.523,4.443-3.777,5.978c-0.629,0.738-1.272,1.466-1.945,2.176
		c-0.351,0.385-0.61,0.636-0.909,0.945l-0.435,0.445l-0.109,0.111l-0.314,0.311l-0.061,0.056l-0.246,0.222
		c-1.299,1.192-2.655,2.356-4.04,3.492c-5.541,4.561-11.846,8.438-18.518,11.259c-6.68,2.823-13.672,4.637-20.652,5.682
		c-6.989,1.061-13.978,1.353-20.885,1.206c-3.413-0.08-7.03-0.298-10.255-0.568c-3.609-0.355-7.06-0.773-10.542-1.516
		c-3.461-0.722-6.897-1.582-10.244-2.714c-3.352-1.112-6.642-2.4-9.84-3.879c-6.385-2.983-12.413-6.665-17.953-10.956
		c-2.769-2.148-5.43-4.432-7.943-6.886c-1.263-1.22-2.486-2.485-3.676-3.797c-0.596-0.654-1.181-1.326-1.76-2.01
		c-0.595-0.716-1.11-1.339-1.77-2.227l-0.815-1.098l-0.078-1.221v0c-0.483-4.755,0.646-9.09,2.239-12.904
		c1.62-3.835,3.796-7.244,6.265-10.364c2.481-3.112,5.271-5.938,8.365-8.44c1.551-1.252,3.161-2.416,4.879-3.502l1.339-0.815
		l0.586-0.337l0.293-0.168l0.383-0.209l2.598-1.352c3.485-1.72,7.063-3.111,10.685-4.327c3.619-1.241,7.315-2.139,11.022-2.969
		c1.861-0.357,3.725-0.723,5.596-1.017c1.876-0.239,3.746-0.581,5.629-0.729c3.761-0.393,7.536-0.628,11.305-0.66
		c3.772-0.066,7.539,0.073,11.29,0.338c1.879,0.175,3.735,0.274,5.633,0.517l5.697,0.747l5.324,0.933l0.665,0.117l0.333,0.058
		l0.482,0.099l1.436,0.321c0.957,0.217,1.918,0.414,2.863,0.705c3.793,1.051,7.557,2.383,11.128,4.183
		c7.167,3.543,13.641,8.6,18.926,14.663c2.635,3.035,5.164,6.202,7.271,9.684c1.026,1.753,2.008,3.546,2.807,5.445
		c0.401,0.948,0.765,1.92,1.087,2.923c0.332,1.036,0.608,1.95,0.909,3.279L703.261,507.897z"/>
	<path fill="#121314" d="M639.67,784.959c0,0,48.485-37.868,69.265-80.057c20.78-42.189,30.044-75.839,37.317-111.427
		s5.163-50.744,5.529-74.668c0.366-23.924,8.232-74.086,12.433-113.991c4.201-39.904,7.928-98.58-38.907-152.909
		c-46.835-54.329-33.43-60.347-33.43-60.347s78.8,41.753,84.973,121.089c6.173,79.336-0.975,123.781-5.3,144.009
		s-3.342,28.034-3.342,28.034s5.151,55.797-2.532,94.425c-7.683,38.628-20.755,79.358-20.755,79.358l4.542,1.269l-75.748,127.105
		l-23.824,15.037C649.891,801.886,620.714,825.607,639.67,784.959z"/>
	<path fill="#5D4838" d="M387.031,182.376c27.398-15.089,85.133-4.909,127.955,0.35c40.898,5.022,78.513-36.168,154.427,19.977
		c10.353,14.494,31.501,23.83,31.501,23.83s-66.486-69.117-109.759-77.825c-26.73-5.38-65.526-17.497-124.303-9.94
		s-119.131,41.736-137.396,58.81S341.318,207.551,387.031,182.376z"/>
	<path fill="#121314" d="M449.852,999.174c-0.192-0.38-0.501-0.571-0.928-0.574c-49.731-6.531-30.984-53.828-46.659-80.587
		c-9.992-17.057-10.703-39.54-15.738-59.55c-0.238-0.944-2.597-2.374-3.063-2.09c-10.095,6.152-23.837,7.987-26.916,22.558
		c-4.641,21.958-3.142,44.088,1.478,65.512c2.321,10.763,16.451,10.072,25.237,12.762c17.246,5.281,13.937,9.47,2.761,18.724
		c-6.904,5.717-17.841,8.869-18.938,20.501c-0.018,0.189-4.837-0.075-7.415-0.128c0.148-3.377-0.976-8.838,0.634-9.821
		c27.154-16.572,15.588-21.464-5.69-32.147c-12.475-6.264-10.745-29.361-8.274-42.968c7.682-42.3-10.607-42.747-43.126-33.872
		c-30.745,8.391-65.931,4.098-85.652,37.682c-14.106,24.023-10.149,50.933-13.711,76.62c-1.254,9.046-7.29,4.933-11.547,5.791
		c-3.622,0.73-6.03-0.914-5.161-4.893c5.654-25.898-0.86-53.782,13.391-78.33c13.597-23.42,32.146-38.533,59.424-44.964
		c44.928-10.593,93.688-7.313,133.838-35.707c1.194-0.844,2.658-3.589,2.515-3.711c-5.915-5.046-12.001-9.894-18.065-14.766
		c-0.377-0.251-0.755-0.502-1.132-0.752c-4.445-3.675-8.892-7.351-13.338-11.027c-0.337-0.277-0.675-0.554-1.012-0.83
		c-15.844-16.634-31.688-33.268-47.533-49.903c-0.264-0.345-0.529-0.689-0.792-1.033c-2.937-5.63-5.1-11.864-8.938-16.794
		c-23.098-29.675-13.408-74.915-55.603-98.256c-29.086-16.09-44.241-52.929-47.855-88.381c-3.48-34.135-16.427-72.407,24.972-95.462
		c6.718-0.051,13.436-0.103,20.154-0.154c2.693,0.668,5.386,1.337,8.079,2.005c-0.112-6.638,0.611-13.415-0.463-19.894
		c-13.401-80.837-9.148-157.872,47.249-223.936c48.465-56.772,111.663-84.389,184.512-91.626
		c93.424-9.281,173.604,19.898,239.187,86.935c23.294,23.81,36.041,54.484,47.157,85.551c0.129,1.095,0.258,2.19,0.386,3.285
		c11.589,50.627,11.446,101.161-0.733,151.709c-0.705,2.928-3.461,10.672,4.953,8.284c23.522-6.676,40.458,0.373,50.896,22.607
		c8.203,33.526,3.245,66.326-5.458,98.918c-12.24,25.152-28.057,47.661-47.047,68.34c-7.401,8.059-22.672,1.238-25.039,14.37
		c-5.464,30.31-16.322,58.622-29.448,86.233c-7.147,9.265-14.294,18.531-21.44,27.795c-0.62,0.739-1.24,1.479-1.861,2.219
		c-0.917,1.001-1.835,2.003-2.751,3.004c-16.662,13.725-33.49,27.258-49.86,41.324c-3.706,3.184-13.908,6.956-9.351,10.767
		c12.77,10.679,26.987,22.608,42.495,26.376c27.432,6.664,56.242,7.654,84.475,11.019c0.378,0.133,0.755,0.267,1.132,0.4
		c4.36,0.712,8.722,1.424,13.083,2.135c0.469,0.025,0.937,0.05,1.405,0.076c1.043,0.113,2.087,0.225,3.131,0.338
		c0.814,0.405,1.628,0.811,2.442,1.216c15.705,8.967,30.975,18.187,41.188,34.09c18.422,28.686,13.301,61.861,18.729,93.017
		c-5.563-0.06-11.127-0.119-16.69-0.179c-0.465-7.907-0.864-15.818-1.407-23.719c-2.419-35.21-4.91-72.633-44.542-85.894
		c-27.654-9.253-58.215-9.751-87.437-14.416c-11.502-1.836-9.091,3.81-9.689,12.203c-1.813,25.435,17.99,58.908-22.753,71.542
		c-11.121,3.448-8.558,6.155-2.598,12.42c7.305,7.678,22.947,12.305,12.326,28.045c-2.452-0.004-4.904-0.009-7.354-0.013
		c4.84-19.059-14.232-21.775-21.987-32.23c-1.651-2.226-4.435-5.001-4.027-6.97c0.399-1.927,4.034-3.567,6.549-4.604
		c9.846-4.06,24.527-4.996,28.872-12.226c14.713-24.482,1.596-68.064-22.402-83.091c-1.317-0.825-5.814-7.924-6-1.126
		c-1.359,49.728-22.569,94.037-36.864,140.225c-6.734,0.006-13.468,0.011-20.201,0.017c-12.721-26.98-25.542-14.218-38.367-0.096
		c-20.099-0.007-40.198-0.014-60.297-0.021c-5.484-7.539-11.843-15.679-21.233-15.954c-8.655-0.253-12.265,9.025-16.234,15.942
		C451.206,999.08,450.529,999.127,449.852,999.174z M264.122,373.84c-2.085,40.493,6.056,65.733,6.505,70.212
		c0.579,2.793,1.158,5.585,1.737,8.378c1.426,15.887,2.853,31.774,4.279,47.661c1.293,19.509,1.686,36.354,1.686,54.77
		c0.204,5.161,0.409,10.321,0.613,15.482c0.66,4.733,1.321,9.466,1.981,14.199c8.653,49.183,23.879,96.053,49.041,139.429
		c-0.297,1.086-0.593,2.171-0.89,3.257c1.18,0.182,2.36,0.365,3.54,0.547l0.232,0.472c0.715,1.022,1.43,2.044,2.146,3.065
		c0.237,0.093,0.328,0.264,0.271,0.513c0.987,1.28,1.973,2.56,2.96,3.84c0.264,0.191,0.374,0.447,0.33,0.77
		c0.784,1.104,1.568,2.208,2.352,3.312l0.262,0.405c1.01,1.283,2.02,2.565,3.029,3.848c1.21,1.513,2.419,3.026,3.629,4.538
		c0.882,0.96,1.764,1.919,2.646,2.879c0.29,0.065,0.45,0.245,0.481,0.539c8.347,14.967,20.651,25.502,36.242,32.355
		c0.54,0.091,1.079,0.182,1.619,0.272c0.743-0.185,1.487-0.37,2.23-0.555c-0.313-0.535-0.626-1.071-0.939-1.606
		c-0.125-0.626-0.249-1.252-0.374-1.878c-1.811-6.12-3.623-12.239-5.434-18.359c-0.21-1.006-0.419-2.012-0.629-3.017
		c-0.702-3.045-2.411-11.418-2.564-12.56c-2.511-16.442-2.611-29.173-0.434-38.042c4.028-15.104,12.039-22.895,17.935-27.288
		s4.741-2.422,7.092-3.615c0.635-0.154,1.269-0.308,1.904-0.462c11.857-0.037,23.715-0.073,35.572-0.11
		c2.59,0.153,5.181,0.306,7.771,0.459c4.119,0.694,8.239,1.387,12.358,2.081c1.042,0.101,2.084,0.202,3.125,0.303
		c3.148,0.191,6.295,0.383,9.443,0.574c0.752,0.119,1.504,0.238,2.257,0.357c5.819,0.721,11.638,1.443,17.457,2.164
		c13.119-0.034,26.238-0.068,39.357-0.102c5.048-0.671,10.095-1.343,15.143-2.014c0.764-0.088,1.529-0.177,2.293-0.265
		c8.766-1.025,17.532-2.051,26.299-3.076c3.289-0.195,6.577-0.389,9.866-0.584c16.528,0.301,33.688-2.755,48.05,9.049
		c1.593,1.707,3.55,3.194,4.724,5.152c17.647,29.442,6.359,58.612-0.92,87.827c-0.479,1.922-0.495,3.958-0.726,5.941
		c1.863-0.908,3.894-1.58,5.563-2.762c18.75-13.278,34.234-29.837,48.028-48.077c6.397-0.765,7.259-5.428,7.442-10.569
		c-0.032-0.317,0.093-0.55,0.375-0.699c8.972-7.786,13.607-17.894,15.714-29.355c-0.05-0.385,0.065-0.712,0.344-0.981
		c5.539-4.741,8.494-10.648,8.143-18.047c0.236-0.964,0.472-1.928,0.708-2.893c4.161-2.892,6.701-6.466,4.978-11.833
		c0.167-0.732,0.333-1.465,0.5-2.197c0.945-2.456,1.889-4.912,2.834-7.367c0.148-0.748,0.296-1.496,0.443-2.244
		c0.707-2.297,1.414-4.593,2.121-6.89c0.122-0.526,0.245-1.052,0.367-1.578c1.99-7.369,3.981-14.737,5.971-22.106
		c0.13-1.349,0.259-2.698,0.389-4.047c0.888-3.196,1.776-6.391,2.663-9.587c0.087-1.163,0.174-2.325,0.262-3.488
		c0.756-2.675,1.511-5.35,2.267-8.025c0.227-1.7,0.455-3.4,0.682-5.101c0.897-5.984,1.794-11.967,2.691-17.951
		c0.104-4.73,0.208-9.459,0.311-14.189c0.112-0.833,0.224-1.665,0.336-2.498c0.056-2.349,0.111-4.697,0.167-7.046
		c0.614-22.917,1.229-45.835,1.843-68.752c0.189-3.291,0.379-6.583,0.568-9.874c0.955-6.765,1.91-13.53,2.865-20.294
		c0.103-2.349,0.207-4.697,0.31-7.046c0.694-2.809,1.388-5.618,2.082-8.426c0.272-2.773,0.544-5.545,0.816-8.318
		c0.892-4.779,1.784-9.559,2.676-14.338c0.115-4.731,0.23-9.461,0.345-14.192c3.735-121.896-102.213-209.24-159.739-227.23
		c-29.622-9.264-61.348,3.278-90.492,3.337c-35.198,0.072-67.25-10.685-95.364-3.836
		C376.391,176.813,270.454,250.866,264.122,373.84z M441.088,816.379c14.969,7.733,75.839,25.166,122.142,11.87
		c33.051-9.491,54.833-43.407,64.745-67.695c16.766-41.081,0.67-66.298-42.51-62.128c-41.366,3.994-82.386,8.744-123.766,1.736
		c-1.409-0.208-1.558-0.23-2.443-0.36c-8.736-1.01-17.472-2.019-26.208-3.029c0,0-10.528,0.15-11.712,0.167
		c-15.214-0.375-31.874,15.38-22.039,55.738C407.453,786.152,419.392,801.14,441.088,816.379z M768.03,561.74
		c-0.146,3.282-0.292,6.564-0.438,9.847c-3.497,17.576-7.082,35.136-10.435,52.74c-0.94,4.933-6.561,12.848,0.158,14.271
		c8.296,1.757,15.966-4.116,18.743-13.536c0.264-0.483,0.529-0.966,0.793-1.45c0.744-0.888,1.488-1.776,2.231-2.664
		c0.508-0.652,1.016-1.304,1.523-1.956c1.482-2.121,2.964-4.243,4.447-6.364c-0.035-0.317,0.081-0.563,0.347-0.739
		c2.409-3.2,4.819-6.399,7.228-9.599c2.55-3.853,5.1-7.706,7.65-11.559c1.888-3.871,3.776-7.743,5.663-11.614
		c0.228-1.052,0.456-2.103,0.684-3.155c0.738-1.481,1.476-2.963,2.213-4.444c0.159-0.804,0.317-1.608,0.476-2.412
		c3.814-1.295,4.368-3.563,1.999-6.702c0.458-2.584,0.916-5.169,1.374-7.753c0.776-3.096,1.551-6.192,2.327-9.288
		c0.167-1.177,0.333-2.354,0.5-3.531c4.595-2.278,3.766-5.631,1.826-9.205c0.095-12.951,0.19-25.901,0.285-38.851
		c-0.767-2.627-1.534-5.254-2.301-7.881c-0.153-1.012-0.306-2.024-0.459-3.037c-1.758-11.271-9.18-17.503-19.701-18.093
		c-24.405-1.369-37.168,30.57-24.539,60.416c0.215,1.486,0.43,2.971,0.646,4.457c-0.444,3.221-0.888,6.442-1.332,9.663
		C764.872,546.404,766.632,554.088,768.03,561.74z M275.136,637.241c-0.726-4.082-1.453-8.163-2.179-12.245
		c-0.152-1.54-0.303-3.08-0.455-4.62c-1.689-6.736-3.378-13.471-5.066-20.207c-0.091-0.787-0.182-1.573-0.273-2.36
		c-2.155-30.829-4.31-61.659-6.465-92.488c-0.01-5.078-0.02-10.156-0.031-15.235c3.136-9.024-2.192-15.398-8.199-19.906
		c-6.162-4.625-13.303-9.447-22.251-4.831c-19.119,9.861-14.446,81.242-14.377,81.858c4.323,43.564,31.956,75.964,51.123,86.488
		c3.498,1.921,7.832,3.849,7.832,3.849L275.136,637.241z M454.634,857.129c-6.738-1.227-4.51,4.201-5.419,7.301
		c-4.257,1.333-8.513,2.665-12.77,3.997c-3.287,0.155-6.575,0.311-9.862,0.466c-1.223,1.147-2.445,2.293-3.668,3.44
		c0.035,2.644,0.069,5.287,0.104,7.931c0.462,1.577,0.924,3.153,1.386,4.73c0.44,1.564,0.881,3.128,1.321,4.692
		c1.826,3.047,3.652,6.094,5.479,9.141c5.166,5.068,10.332,10.135,15.498,15.203c2.894,1.764,5.788,3.528,8.682,5.292
		c0.962,0.336,1.925,0.672,2.887,1.009c1.173,0.682,2.347,1.364,3.521,2.046c0.743,0.217,1.487,0.435,2.23,0.652
		c1.873,0.766,3.745,1.533,5.618,2.299c1.752,0.348,3.504,0.696,5.256,1.044c0.767,0.375,1.534,0.751,2.301,1.126
		c2.756,0.497,5.512,0.994,8.268,1.49c2.756,4.312,6.436,3.922,10.408,2.043c12.415-0.031,24.83-0.061,37.245-0.092
		c4.083,2.119,7.856,2.479,10.791-1.906c3.141-0.624,6.281-1.248,9.422-1.871c1.625-0.423,3.25-0.846,4.875-1.268
		c0.922-0.175,1.845-0.35,2.767-0.525c1.807-0.854,3.615-1.708,5.422-2.562c0.967-0.298,1.933-0.595,2.9-0.893
		c0.955-0.563,1.91-1.127,2.865-1.69c2.219-1.027,4.439-2.055,6.658-3.083c1.685-1.03,3.37-2.059,5.055-3.089
		c2.076-1.835,4.152-3.67,6.229-5.506c5.026-5.365,11.252-10.039,14.82-16.243c6.823-11.863,5.648-23.08-0.927-23.355
		c-2.508-0.094-5.017-0.187-7.525-0.281c-4.999-2.2-9.998-4.401-14.996-6.601c-0.231-1.565-0.461-3.131-0.692-4.696
		c-0.792-0.191-1.584-0.381-2.375-0.572c-0.596,0.064-1.193,0.127-1.789,0.191c-1.827,0.818-3.653,1.637-5.48,2.455
		c-1.544,0.166-3.088,0.332-4.633,0.498C529.013,867.004,491.705,866.783,454.634,857.129z M418.218,850.93
		c5.016,0.308,10.031,0.616,15.047,0.924c-6.297-3.14-12.331-7.818-18.971-8.956c-5.82-0.998-17.257,1.648-15.171,7.482
		C401.983,858.376,411.531,848.639,418.218,850.93z M613.953,841.907c-3.945,2.249-9.738,5.552-15.531,8.854
		c10.034,0.647,20.065,1.378,30.107,1.856c1.651,0.079,3.356-0.957,5.036-1.477C629.875,844.42,623.438,842.992,613.953,841.907z"/>
</g>
<g id="Calque_2">
</g>
<g id="Calque_3">
</g>
</svg>
