<?xml version="1.0" encoding="utf-8"?>
<!-- Generator: Adobe Illustrator 17.0.0, SVG Export Plug-In . SVG Version: 6.00 Build 0)  -->
<!DOCTYPE svg PUBLIC "-//W3C//DTD SVG 1.1//EN" "http://www.w3.org/Graphics/SVG/1.1/DTD/svg11.dtd">
<svg version="1.1" xmlns="http://www.w3.org/2000/svg" xmlns:xlink="http://www.w3.org/1999/xlink" x="0px" y="0px" width="1000px"
	 height="1000px" viewBox="0 0 1000 1000" enable-background="new 0 0 1000 1000" xml:space="preserve">
<g id="Calque_1" display="none">
	<rect x="114" y="241" display="inline" width="687" height="478"/>
</g>
<g id="Calque_2">
	<g>
		<path fill="#FFFFFF" d="M740.691,238.812c22.396,22.396,19.401,62.04-6.656,88.097l-387.63,387.63
			c-26.057,26.057-65.7,29.052-88.097,6.656c-22.396-22.396-19.401-62.04,6.656-88.097l387.63-387.63
			C678.651,219.411,718.295,216.416,740.691,238.812z"/>
	</g>
	<g>
		<path fill="#FFFFFF" d="M740.691,721.194c-22.396,22.396-62.04,19.401-88.097-6.656l-387.63-387.63
			c-26.057-26.057-29.052-65.7-6.656-88.097c22.396-22.396,62.04-19.401,88.097,6.656l387.63,387.63
			C760.092,659.154,763.087,698.798,740.691,721.194z"/>
	</g>
</g>
</svg>
